<svg width="319" height="62" viewBox="0 0 319 62" fill="none" xmlns="http://www.w3.org/2000/svg">
<path d="M201.504 40.2337C205.757 39.8969 208.318 37.5986 209.189 33.3389C209.796 30.4819 209.316 28.148 207.748 26.3371C206.4 24.7956 204.128 23.9278 200.934 23.7337C200.675 23.7167 200.416 23.7167 200.158 23.7337C197.365 26.6521 194.866 29.1842 192.144 32.1858C190.903 33.5529 189.498 34.9615 188.234 36.3049C187.858 36.7031 187.599 37.3569 187.188 37.6541L186.799 38.0821L185.847 39.1222C185.8 39.1817 185.606 39.996 185.606 39.996L181.967 57.6551H194.684C197.539 57.7197 200.327 56.7759 202.568 54.9863C204.789 53.2442 206.303 50.7411 206.825 47.9488C207.299 45.6307 207.103 43.8476 206.237 42.5994C205.396 41.3868 203.809 40.5903 201.504 40.2337ZM197.753 47.0097C197.574 47.9802 197.036 48.8453 196.248 49.4288C195.405 50.0411 194.386 50.3545 193.349 50.3204C193.267 50.3204 193.155 50.3204 193.026 50.3204H192.579L193.914 43.7822H194.631C195.1 43.7445 195.571 43.8019 196.017 43.9509C196.463 44.0999 196.876 44.3376 197.23 44.65C197.511 44.9642 197.707 45.3467 197.799 45.7602C197.89 46.1737 197.875 46.6041 197.753 47.0097ZM200.064 33.9333C199.985 34.3669 199.822 34.7805 199.583 35.1499C199.345 35.5192 199.037 35.8371 198.676 36.0849C197.862 36.6176 196.906 36.8852 195.936 36.8517H195.348L196.524 31.0208L197.112 30.9851C197.265 30.9851 197.388 30.9851 197.494 30.9851C199.603 31.001 200.454 31.9936 200.046 33.963L200.064 33.9333ZM303.261 45.3276H306.612C306.474 46.0279 306.257 46.7099 305.965 47.3604C305.718 47.9186 305.398 48.4405 305.013 48.9117C304.688 49.3145 304.288 49.6496 303.837 49.8984C303.413 50.1271 302.941 50.2475 302.461 50.2491C301.285 50.2491 300.515 49.5774 300.239 48.24C299.962 46.9027 300.121 44.7629 300.727 41.8148C302.153 34.8764 304.113 31.4091 306.606 31.4131C306.931 31.4017 307.252 31.484 307.532 31.6503C307.812 31.8166 308.039 32.0601 308.188 32.3522C308.558 33.1444 308.69 34.0286 308.57 34.8962L318.036 31.6568C316.789 26.0498 313.51 23.2403 308.199 23.2284C304.19 23.2284 300.707 24.8135 297.751 27.9835C294.796 31.1535 292.748 35.4806 291.607 40.9648C290.498 46.3935 290.767 50.6651 292.413 53.7797C294.059 56.8942 296.922 58.4396 301.003 58.4159C302.957 58.4565 304.896 58.0568 306.679 57.2456C308.462 56.4344 310.044 55.2322 311.31 53.7262C313.826 50.8573 315.756 46.1518 317.101 39.6096L317.389 38.2009H304.719L303.261 45.3276ZM285.552 23.8466L283.982 31.5022C283.692 32.9248 283.417 34.6842 283.159 36.7804C282.9 38.8765 282.637 41.4007 282.371 44.3528L282.047 41.3809C281.912 40.1921 281.783 39.146 281.659 38.2306C281.536 37.3153 281.418 36.5129 281.318 35.8115L279.213 23.8347H270.553L263.603 57.7918H272.27L274.034 49.1257C274.304 47.7943 274.58 46.239 274.863 44.4598C275.139 42.6766 275.451 40.6022 275.727 38.2128C275.803 39.2708 275.909 40.3823 276.056 41.5473C276.203 42.7123 276.38 43.9664 276.579 45.3038L278.59 57.7858H287.251L294.23 23.8169L285.552 23.8466ZM259.447 23.7753L252.468 57.768H261.551L268.525 23.7991L259.447 23.7753ZM258.271 23.7753H248.105L245.753 28.4174C245.342 29.2099 244.805 30.3373 244.142 31.7994C244.142 31.0802 244.107 30.4383 244.072 29.8618C244.045 29.3616 243.99 28.8635 243.907 28.3699L243.378 23.7753H233.271L237.622 40.1386L225.863 57.7442H235.746L238.345 53.2863C239.217 51.7805 240.014 50.2312 240.732 48.6442C240.793 50.074 240.937 51.4989 241.161 52.9119L241.849 57.7442H251.933L247.3 40.103L258.271 23.7753ZM227.838 53.4944C230.837 50.2609 232.869 46.0547 233.935 40.8756C235.049 35.447 234.786 31.1337 233.148 27.936C231.509 24.7382 228.754 23.1333 224.881 23.1215C221.714 23.1215 218.735 24.2964 215.944 26.6461C212.189 29.8162 209.692 34.4108 208.454 40.4299C207.16 46.7105 207.682 51.422 210.018 54.5643C211.868 57.0488 214.451 58.295 217.767 58.3029C221.494 58.3069 224.852 56.704 227.838 53.4944ZM224.493 40.9232C224.104 43.1955 223.345 45.3868 222.247 47.4079C221.347 48.9652 220.36 49.7379 219.307 49.7379C218.255 49.7379 217.602 48.9474 217.338 47.3604C217.073 45.7734 217.238 43.5623 217.826 40.7033C218.414 37.8443 219.184 35.5975 220.119 34.1056C221.089 32.4949 222.106 31.6865 223.182 31.6924C225.318 31.6806 225.755 34.7496 224.493 40.8994V40.9232Z" fill="#A7A9AC"/>
<path d="M22.0442 6.09241H2.69475L1.03673 14.2652H6.08134L0.789795 40.1683H9.89714L15.1887 14.2592H20.4038L22.0442 6.09241ZM37.8483 6.09241L35.4024 18.1405H31.0574L33.5033 6.09241H24.4019L17.4699 40.1683H26.5773L29.3642 26.4619H33.715L30.9222 40.1683H40.0237L46.9556 6.09241H37.8483ZM69.4682 10.2828C67.8219 7.07314 65.0547 5.47029 61.1664 5.47425C57.9914 5.47425 55.0066 6.66301 52.2119 9.04054C48.449 12.2383 45.9541 16.8527 44.7273 22.8837C43.4456 29.1842 43.9767 33.9075 46.3206 37.0538C48.1903 39.5383 50.7832 40.7825 54.0992 40.7865C57.8386 40.7865 61.2036 39.1678 64.1943 35.9304C67.185 32.693 69.2154 28.463 70.2855 23.2403C71.383 17.8077 71.1105 13.4885 69.4682 10.2828ZM60.8136 23.3057C60.4284 25.595 59.6715 27.8042 58.5735 29.8439C57.672 31.4012 56.6921 32.1798 55.6337 32.1798C54.5754 32.1798 53.9169 31.3873 53.6582 29.8023C53.3937 28.2213 53.5465 25.9923 54.1345 23.1274C54.7224 20.2625 55.4868 18.0038 56.4157 16.506C57.3525 14.8734 58.3697 14.0571 59.4672 14.0571C61.6191 14.0571 62.0679 17.14 60.8136 23.3057ZM93.3625 6.06863L88.5354 18.4258C87.8534 20.1377 87.1988 22.0734 86.5717 24.233C86.7284 22.9372 86.8598 21.7385 86.9656 20.6369C87.0714 19.5354 87.1361 18.513 87.1596 17.5699L87.5947 6.09241H76.2649L65.4055 40.1683H75.1008L79.0459 24.7144L80.5452 18.4258C80.4452 19.4303 80.3747 20.0901 80.3394 20.417C80.1434 22.5608 80.0317 24.0764 80.0043 24.964L79.3575 40.1683H86.7774L92.7275 24.964C93.1214 23.9536 93.4977 22.9015 93.8505 21.8198C94.2033 20.738 94.5443 19.6146 94.8912 18.4258L93.9152 24.6312L91.4281 40.1683H100.947L104.604 6.09241L93.3625 6.06863ZM170.331 10.2828C168.685 7.07314 165.917 5.47029 162.029 5.47425C158.862 5.47425 155.877 6.66301 153.075 9.04054C149.312 12.2383 146.817 16.8527 145.59 22.8837C144.304 29.1723 144.837 33.8897 147.189 37.0359C149.059 39.5205 151.652 40.7647 154.968 40.7687C158.707 40.7687 162.072 39.15 165.063 35.9126C168.054 32.6752 170.082 28.4511 171.148 23.2403C172.25 17.8077 171.977 13.4885 170.331 10.2828ZM161.676 23.3057C161.291 25.595 160.534 27.8042 159.436 29.8439C158.539 31.4012 157.559 32.1798 156.497 32.1798C155.434 32.1798 154.776 31.3873 154.521 29.8023C154.254 28.2173 154.413 25.9923 154.997 23.1274C155.581 20.2625 156.344 18.0553 157.284 16.506C158.249 14.8853 159.272 14.075 160.353 14.075C162.49 14.0631 162.931 17.14 161.676 23.3057ZM190.88 6.06863L189.322 13.7243C189.032 15.1508 188.761 16.9161 188.51 19.0202C188.26 21.1243 188.009 23.6643 187.758 26.6402L187.429 23.6683C187.293 22.4795 187.164 21.4215 187.035 20.5121C186.905 19.6027 186.794 18.7884 186.688 18.0811L184.559 6.12213H175.84L168.908 40.1683H177.598L179.362 31.4725C179.632 30.1352 179.909 28.5719 180.179 26.7947C180.45 25.0175 180.767 22.9253 181.043 20.524C181.114 21.582 181.226 22.6975 181.379 23.8704C181.531 25.0433 181.708 26.2974 181.908 27.6328L183.178 35.4311C187.634 30.3967 192.461 24.964 196.695 20.209L199.57 6.06863H190.88ZM140.81 19.7394L139.587 18.6576C138.535 17.7601 138.1 16.8745 138.282 15.9413C138.42 15.3513 138.775 14.8368 139.275 14.5029C139.81 14.1016 140.462 13.8924 141.128 13.9085C142.08 13.9245 142.996 14.2803 143.714 14.913C144.58 15.6583 145.258 16.6018 145.69 17.665L147.807 7.24551C145.937 6.10816 143.797 5.50617 141.616 5.50397C139.214 5.49152 136.873 6.26512 134.942 7.70913C134.208 8.22977 133.53 8.82747 132.92 9.49227C131.431 11.1023 130.284 13.0039 129.551 15.0795C129.627 13.9325 129.466 12.7821 129.078 11.7015C128.691 10.6209 128.085 9.63367 127.299 8.80279C125.539 6.99587 122.462 6.09241 118.068 6.09241H109.249L102.305 40.1683H111.413L113.676 28.9999H115.093C118.503 28.9999 121.257 28.3164 123.354 26.9493C126.063 25.1425 128.021 22.3928 128.857 19.2223V19.3293C128.89 20.1606 129.046 20.9821 129.321 21.7663C129.616 22.5927 130.035 23.3685 130.562 24.0665C131.175 24.8824 131.871 25.6314 132.638 26.3014L133.884 27.4902C134.786 28.358 135.142 29.2495 134.954 30.1649C134.819 30.8099 134.439 31.3755 133.896 31.74C133.296 32.1669 132.577 32.3877 131.844 32.37C129.762 32.37 128.077 31.1337 126.787 28.6611L124.612 39.36C126.69 40.2806 128.929 40.7698 131.197 40.7984C134.29 40.7915 137.268 39.6147 139.546 37.4996C141.994 35.3388 143.651 32.4074 144.25 29.1782C144.664 27.4705 144.588 25.6789 144.032 24.013C143.342 22.3292 142.231 20.8549 140.81 19.7335V19.7394ZM120.055 17.5283C119.872 18.6193 119.324 19.6136 118.503 20.3457C117.708 21.0275 116.694 21.3912 115.652 21.368H115.24L116.828 13.5519H117.463C117.897 13.5256 118.331 13.6156 118.72 13.8128C119.109 14.01 119.44 14.3075 119.679 14.6753C119.928 15.0998 120.09 15.5708 120.154 16.06C120.219 16.5493 120.185 17.0466 120.055 17.5224V17.5283Z" fill="#D4D4D5"/>
<path d="M218.231 0L161.335 61.9941L219.113 0.772697L218.231 0ZM215.292 0L158.36 61.9881L216.138 0.766753L215.292 0ZM221.171 0L164.24 62L222.018 0.778641L221.171 0Z" fill="#BE1E2D"/>
</svg>
