<?xml version="1.0" encoding="utf-8"?>
<!-- Generator: Adobe Illustrator 24.1.0, SVG Export Plug-In . SVG Version: 6.00 Build 0)  -->
<svg version="1.1" id="Layer_1" xmlns="http://www.w3.org/2000/svg" xmlns:xlink="http://www.w3.org/1999/xlink" x="0px" y="0px"
	 viewBox="0 0 147 67" style="enable-background:new 0 0 147 67;" xml:space="preserve">
<style type="text/css">
	.st0{fill:#FFFFFF;}
	.st1{fill:#231F20;}
	.st2{fill:#CE1141;}
</style>
<g>
	<path class="st0" d="M73.1,62c39.8,0,72.1-12.8,72.1-28.5C145.2,17.7,112.9,5,73.1,5C33.3,5,1,17.7,1,33.5C1,49.3,33.3,62,73.1,62z
		"/>
	<path class="st1" d="M32.5,58.1C20.9,55,11.6,50.6,6,45.3l0,0c-3.8-3.5-6-7.5-6-11.8l0,0c0-4.3,2.2-8.3,6-11.8l0,0
		c3.8-3.5,9.2-6.6,15.8-9.3l0,0C34.9,7.2,53.1,4,73.1,4l0,0c15,0,29,1.8,40.6,4.9l0,0c11.6,3.1,20.9,7.5,26.5,12.8l0,0
		c3.8,3.5,6,7.5,6,11.8l0,0c0,4.3-2.2,8.3-6,11.8l0,0c-3.8,3.5-9.2,6.6-15.8,9.3l0,0C111.3,59.8,93.1,63,73.1,63l0,0v-1v-1
		c14.9,0,28.7-1.8,40.1-4.8l0,0c11.4-3,20.4-7.4,25.7-12.3l0,0c3.5-3.3,5.4-6.8,5.4-10.4l0,0c0-3.6-1.8-7.1-5.4-10.4l0,0
		c-3.5-3.3-8.7-6.3-15.2-8.9l0,0c-12.9-5.1-30.8-8.3-50.6-8.3l0,0c-14.9,0-28.7,1.8-40.1,4.8l0,0c-11.4,3-20.4,7.4-25.7,12.3l0,0
		c-3.5,3.3-5.4,6.8-5.4,10.4l0,0c0,3.6,1.8,7.1,5.4,10.4l0,0c3.5,3.3,8.7,6.3,15.2,8.9l0,0c12.9,5.1,30.8,8.3,50.6,8.3l0,0v1v1
		C58.1,63,44.1,61.2,32.5,58.1L32.5,58.1z"/>
	<path class="st1" d="M17.3,46.7v-1.7h0.8c0.4,0,0.9,0,1.3,0.1c0.5,0.1,0.8,0.4,0.8,0.8c0,0.3-0.2,0.5-0.6,0.7
		c-0.4,0.2-0.8,0.2-1.3,0.2H17.3 M16.7,48.7h0.6V47h1.2c0.6,0,1.2,0,1.6-0.3c0.5-0.2,0.7-0.6,0.7-1c0-0.4-0.3-0.8-0.8-1
		c-0.5-0.2-1.1-0.2-1.7-0.2h-1.7V48.7z"/>
	<path class="st1" d="M21.9,44.6h1.5c0.6,0,1.3,0,1.8,0.2c0.6,0.2,1,0.7,1,1.1c0,0.7-0.8,1.2-1.9,1.2l1.8,1.5h-0.8l-2.2-1.9h0.2
		c0.4,0,1,0,1.4-0.1c0.5-0.2,0.8-0.5,0.8-0.8c0-0.3-0.2-0.6-0.6-0.7c-0.4-0.2-0.9-0.2-1.4-0.2h-1v3.8h-0.6V44.6z"/>
	<path class="st1" d="M30.3,44.9c1.5,0,2.7,0.8,2.7,1.7c0,1-1.2,1.8-2.7,1.8c-1.4,0-2.7-0.8-2.7-1.7C27.5,45.7,28.8,44.9,30.3,44.9
		L30.3,44.9 M30.3,44.5c-1.8,0-3.4,1-3.4,2.2c0,1.2,1.6,2.1,3.4,2.1c1.8,0,3.4-0.9,3.4-2.2C33.6,45.4,32.1,44.5,30.3,44.5z"/>
	<path class="st1" d="M35.4,48.3v-3.4h0.8c0.8,0,1.6,0,2.3,0.4c0.7,0.3,1,0.8,1,1.3c0,0.5-0.3,1-1,1.3c-0.7,0.4-1.5,0.4-2.3,0.4
		H35.4 M34.7,48.7h1.8c1,0,1.8-0.1,2.6-0.5c0.7-0.4,1-0.9,1-1.5c0-0.6-0.4-1.2-1.2-1.6c-0.7-0.4-1.6-0.5-2.5-0.5h-1.7V48.7z"/>
	<path class="st1" d="M41.9,44.6v2.5c0,0.3,0,0.6,0.3,0.9c0.3,0.3,0.7,0.4,1.2,0.4c0.4,0,0.9-0.1,1.2-0.4c0.3-0.3,0.4-0.6,0.4-0.9
		v-2.5h0.6v2.5c0,0.4-0.1,0.8-0.5,1.2c-0.4,0.3-1,0.5-1.7,0.5c-0.6,0-1.3-0.2-1.7-0.5c-0.4-0.4-0.5-0.8-0.5-1.2v-2.5H41.9z"/>
	<path class="st1" d="M52.2,45.6c-0.5-0.5-1.4-0.7-2.2-0.7c-1.4,0-2.7,0.8-2.7,1.7c0,1,1.3,1.8,2.7,1.8c0.9,0,1.7-0.3,2.2-0.8h0.7
		c-0.6,0.7-1.7,1.2-2.9,1.2c-1.9,0-3.3-0.9-3.3-2.2c0-1.2,1.5-2.1,3.3-2.1c0.6,0,1.3,0.1,1.8,0.3c0.4,0.2,0.9,0.5,1.1,0.8H52.2z"/>
	<polygon class="st1" points="54.9,44.9 53.4,44.9 53.4,44.6 57,44.6 57,44.9 55.5,44.9 55.5,48.7 54.9,48.7 	"/>
	<path class="st1" d="M58,47.5c0,0.5,0.6,0.8,1.3,0.8c0.7,0,1.3-0.3,1.3-0.8c0-0.2-0.2-0.4-0.4-0.6c-0.3-0.2-0.6-0.2-1-0.3
		c-0.4-0.1-0.8-0.1-1.1-0.3c-0.4-0.2-0.5-0.5-0.5-0.8c0-0.7,0.8-1.1,1.8-1.1c1,0,1.8,0.5,1.7,1.1h-0.7c0-0.4-0.5-0.7-1.2-0.7
		c-0.6,0-1.1,0.3-1.1,0.7c0,0.5,0.6,0.6,1.3,0.7c0.5,0.1,0.8,0.1,1.2,0.4c0.4,0.2,0.6,0.5,0.6,0.9c0,0.7-0.9,1.2-1.9,1.2
		c-1.1,0-2-0.5-2-1.2H58z"/>
	<rect x="64.6" y="44.6" class="st1" width="0.6" height="4.1"/>
	<polygon class="st1" points="66.7,44.6 67.5,44.6 71.1,48 71.1,44.6 71.7,44.6 71.7,48.7 71.1,48.7 67.3,45.1 67.3,48.7 66.7,48.7 
			"/>
	<polygon class="st1" points="74,44.9 72.5,44.9 72.5,44.6 76.1,44.6 76.1,44.9 74.6,44.9 74.6,48.7 74,48.7 	"/>
	<polygon class="st1" points="76.9,44.6 80.3,44.6 80.3,44.9 77.5,44.9 77.5,46.4 80.3,46.4 80.3,46.8 77.5,46.8 77.5,48.3 
		80.3,48.3 80.3,48.7 76.9,48.7 	"/>
	<path class="st1" d="M81.6,44.6h1.5c0.6,0,1.3,0,1.8,0.2c0.6,0.2,1,0.7,1,1.1c0,0.7-0.8,1.2-1.9,1.2l1.8,1.5H85l-2.2-1.9H83
		c0.4,0,1,0,1.4-0.1c0.5-0.2,0.8-0.5,0.8-0.8c0-0.3-0.2-0.6-0.6-0.7c-0.4-0.2-0.9-0.2-1.4-0.2h-1v3.8h-0.6V44.6z"/>
	<polygon class="st1" points="86.9,44.6 87.7,44.6 91.3,48 91.3,44.6 91.9,44.6 91.9,48.7 91.3,48.7 87.5,45.1 87.5,48.7 86.9,48.7 
			"/>
	<path class="st1" d="M94.6,46.9l1.2-1.9l1.2,1.9H94.6 M92.8,48.7h0.7l0.9-1.4h3l0.9,1.4H99l-2.7-4.1h-0.7L92.8,48.7z"/>
	<polygon class="st1" points="100.7,44.9 99.2,44.9 99.2,44.6 102.7,44.6 102.7,44.9 101.3,44.9 101.3,48.7 100.7,48.7 	"/>
	<rect x="103.5" y="44.6" class="st1" width="0.6" height="4.1"/>
	<path class="st1" d="M108.7,44.9c1.5,0,2.7,0.8,2.7,1.7c0,1-1.2,1.8-2.7,1.8c-1.4,0-2.7-0.8-2.7-1.7
		C105.9,45.7,107.2,44.9,108.7,44.9L108.7,44.9 M108.7,44.5c-1.8,0-3.4,1-3.4,2.2c0,1.2,1.6,2.1,3.4,2.1c1.8,0,3.4-0.9,3.4-2.2
		C112,45.4,110.5,44.5,108.7,44.5z"/>
	<polygon class="st1" points="113.1,44.6 114,44.6 117.6,48 117.6,44.6 118.2,44.6 118.2,48.7 117.6,48.7 113.8,45.1 113.8,48.7 
		113.1,48.7 	"/>
	<path class="st1" d="M120.9,46.9l1.2-1.9l1.2,1.9H120.9 M119,48.7h0.7l0.9-1.4h3l0.9,1.4h0.7l-2.7-4.1h-0.7L119,48.7z"/>
	<polygon class="st1" points="126.1,44.6 126.7,44.6 126.7,48.3 129.3,48.3 129.3,48.7 126.1,48.7 	"/>
	<polygon class="st2" points="9.7,42.6 9.7,41.5 136.1,41.5 136.1,42.6 9.7,42.6 	"/>
	<polygon class="st2" points="42.6,23.9 48.6,23.9 54.9,35.9 61.3,23.9 67.2,23.9 67.2,39.6 62.8,39.6 62.8,27.9 56.8,39.6 
		53.1,39.6 47,27.9 47,39.6 42.6,39.6 	"/>
	<path class="st1" d="M62.5,39.9l0-10.7L57,39.9h-4.1l-5.6-10.7v10.7h-5v-16v-0.3h6.5l6.1,11.6l6.2-11.6h6.4v16.3H62.5L62.5,39.9z
		 M63.2,27.9v11.4h3.7v-15h-5.4l-6.6,12.3l-6.5-12.3h-5.5v15h3.7V27.9l0.6-0.1l6,11.6h3.3l6-11.6L63.2,27.9L63.2,27.9z"/>
	<polygon class="st2" points="69.1,23.9 81.8,23.9 81.8,26.7 73.5,26.7 73.5,30.3 81.4,30.3 81.4,33.2 73.5,33.2 73.5,36.8 
		81.8,36.8 81.8,39.6 69.1,39.6 	"/>
	<path class="st1" d="M68.8,39.9v-16v-0.3h13.3V27h-8.3v3h7.9v3.5h-7.9v3h8.3v3.5H68.8L68.8,39.9z M69.4,39.3h12v-2.2h-8.3v-4.3h7.9
		v-2.2h-7.9v-4.3h8.3v-2.2h-12V39.3L69.4,39.3z"/>
	<path class="st2" d="M101.6,28.5c-1.4-1.3-3.8-2.1-6.2-2.1c-2,0-4,0.5-5.5,1.4c-1.6,1-2.7,2.5-2.7,4c0,1.3,0.9,2.7,2.3,3.7
		c1.6,1.1,3.8,1.8,6.1,1.8c2.8,0,5.6-1.2,6.9-2.9h-9.9v-2.7H108v0.3c0,4.6-5.8,8.1-12.5,8.1c-6.8,0-12.6-3.5-12.6-8.2
		c0-4.6,5.8-8.2,12.5-8.2c4.8,0,9.6,1.9,11.4,4.9H101.6z"/>
	<path class="st1" d="M86.5,37.9c-2.4-1.5-3.9-3.6-3.9-6.1l0,0c0-2.5,1.5-4.6,3.9-6.1l0,0c2.4-1.5,5.5-2.4,9-2.4l0,0
		c4.9,0,9.8,1.9,11.7,5.1l0,0l0.3,0.5h-5.8v-0.3l0.2-0.2l-0.2,0.2v0.3h-0.1l-0.1-0.1c-1.3-1.2-3.7-2-6-2l0,0c-2,0-3.9,0.5-5.3,1.3
		l0,0c-1.6,0.9-2.6,2.4-2.6,3.7l0,0c0,1.2,0.8,2.5,2.1,3.4l0,0c1.5,1.1,3.7,1.7,5.9,1.7l0,0c2.4,0,4.8-0.9,6.2-2.2l0,0h-9.5v-3.4h16
		l0,0.7c0,2.4-1.5,4.6-3.9,6l0,0c-2.4,1.5-5.5,2.4-9,2.4l0,0C92,40.3,88.8,39.4,86.5,37.9L86.5,37.9z M86.8,26.3
		c-2.2,1.4-3.6,3.4-3.6,5.6l0,0c0,2.2,1.4,4.1,3.6,5.5l0,0c2.2,1.4,5.3,2.3,8.7,2.3l0,0c3.3,0,6.4-0.9,8.6-2.3l0,0
		c2.2-1.4,3.6-3.3,3.6-5.5l0,0v0H93V34h10.2l-0.4,0.5c-1.4,1.8-4.3,3-7.1,3l0,0c-2.3,0-4.6-0.7-6.3-1.8l0,0c-1.4-1-2.4-2.5-2.4-3.9
		l0,0c0-1.6,1.2-3.2,2.9-4.2l0,0c1.6-0.9,3.6-1.4,5.6-1.4l0,0c2.4,0,4.8,0.8,6.3,2.1l0,0h4.5c-1.9-2.6-6.4-4.3-10.8-4.3l0,0h0l0,0
		C92.1,23.9,89,24.8,86.8,26.3L86.8,26.3z"/>
	<path class="st2" d="M115.1,32.7l2.5-4.8l2.5,4.8H115.1 M106.1,39.6h4.8l2.6-4h8.4l2.6,4h4.8l-9.9-15.7h-3.4L106.1,39.6z"/>
	<path class="st1" d="M124.2,39.9l-2.6-4h-8l-2.6,4h-5h-0.6l10.2-16.3h3.8l10.3,16.3H124.2L124.2,39.9z M122,35.2l2.6,4h4.1l-9.5-15
		H116l-9.4,15h4.1l2.6-4H122L122,35.2z M115.1,32.7l-0.3-0.2l2.8-5.3l3.1,5.8h-5.6V32.7L115.1,32.7z M119.6,32.4l-2-3.7l-2,3.7
		H119.6L119.6,32.4z"/>
	<path class="st2" d="M41.2,31.6c0-4.5-5.5-8-12.3-8c-6.8,0-12.3,3.6-12.3,8c0,2.4,1.7,4.5,4.2,6h-3.2v2h10.1v-2.8
		C24,36.4,21,34.2,21,31.6c0-2.9,3.5-5.4,7.9-5.3l0,0c4.4,0,8,2.4,8,5.3c0,2.7-3.1,4.9-7,5.2v2.8h10.3v-2h-3.1
		C39.5,36.2,41.2,34,41.2,31.6z"/>
	<path class="st1" d="M29.4,39.9v-3.4l0.3,0c1.9-0.1,3.6-0.8,4.8-1.6l0,0c1.2-0.9,1.9-2,1.9-3.2l0,0c0-1.3-0.8-2.6-2.2-3.5l0,0
		c-1.4-0.9-3.3-1.5-5.5-1.5l0,0c0,0-0.1,0-0.2,0l0,0c-2.1,0-4,0.6-5.3,1.5l0,0c-1.3,0.9-2.1,2.2-2.1,3.5l0,0c0,1.2,0.7,2.3,1.9,3.2
		l0,0c1.2,0.9,2.8,1.5,4.7,1.7l0,0l0.3,0v3.4H17.3v-2.6h2.4c-2.1-1.5-3.4-3.4-3.4-5.7l0,0c0-2.4,1.5-4.5,3.7-6l0,0
		c2.3-1.5,5.4-2.4,8.9-2.4l0,0c3.4,0,6.6,0.9,8.9,2.4l0,0c2.3,1.5,3.8,3.6,3.8,6l0,0c0,2.2-1.3,4.2-3.4,5.7l0,0h2.3v2.6H29.4
		L29.4,39.9z M18,39.3h9.5v-2.2c-1.8-0.2-3.5-0.9-4.7-1.8l0,0c-1.3-1-2.1-2.2-2.1-3.7l0,0c0-1.6,0.9-3,2.4-4l0,0
		c1.4-1,3.4-1.6,5.7-1.6l0,0c0.1,0,0.1,0,0.2,0l0,0c2.3,0,4.3,0.6,5.8,1.6l0,0c1.5,1,2.5,2.4,2.5,4l0,0c0,1.5-0.9,2.8-2.2,3.7l0,0
		c-1.3,0.9-3,1.5-4.9,1.7l0,0v2.2h9.6V38h-4l1.1-0.6c2.5-1.4,4.1-3.5,4.1-5.7l0,0c0-2.1-1.3-4-3.5-5.4l0,0c-2.2-1.4-5.2-2.3-8.5-2.3
		l0,0c-3.3,0-6.3,0.9-8.5,2.3l0,0c-2.2,1.4-3.4,3.3-3.4,5.4l0,0c0,2.3,1.5,4.3,4.1,5.7l0,0l1.1,0.6l-4.1,0V39.3L18,39.3z"/>
	<polygon class="st1" points="9.9,21.9 73.1,14.5 136.3,21.9 73.1,20.2 	"/>
</g>
</svg>
