<?xml version="1.0" encoding="utf-8"?>
<!-- Generator: Adobe Illustrator 24.1.0, SVG Export Plug-In . SVG Version: 6.00 Build 0)  -->
<svg version="1.1" id="Layer_1" xmlns="http://www.w3.org/2000/svg" xmlns:xlink="http://www.w3.org/1999/xlink" x="0px" y="0px"
	 viewBox="0 0 154 67" style="enable-background:new 0 0 154 67;" xml:space="preserve">
<style type="text/css">
	.st0{fill:#FFFFFF;}
	.st1{fill:#D71921;}
	.st2{fill:#0B0204;}
</style>
<g>
	<path class="st0" d="M151.1,21.1L142,57.2H3.2L12,21.1l3.8,1.8l2.7,0.1L54.6,9L62,0.1c0,0,0.5,0.5,0.6,0.7c0.9,1.1,1.1,1.5,1.8,3.8
		c0.9,3.1-2.4,12.1-4.9,14.9c-0.1,0.1-5.1,3.3-5.1,3.3h4L151.1,21.1z"/>
	<path class="st1" d="M16.7,41.1c-3.6-5.2-2.5-11.5-1.4-14.8c1-3.3,5.8-9.3,10.4-11.6S35.9,10,41,8.9c5-1.1,17.6-4,20.9-8.9
		c1,4.9,0.2,9.1-1.1,11.1c-1.3,2.1-3.6,5.3-8.8,7.6c-5.2,2.4-6,2.4-6.9,2.6C41.7,33,35.3,52.2,34.3,54.7c-1,2.6-3.3,7.7-10.2,7.8
		s-8.3-5.5-8.2-8.4c0.1-2.9,0.9-4.7,2.1-5.5c-0.3,2.6,1.3,3.1,2.2,3.2c1.2,0.2,2.5-0.3,3.8-4.2c1.3-3.9,7.3-20.3,8.2-22.3
		c-3,0.4-6.3,2.3-8.1,3.3s-5.2,4-6.3,6.5C17,36.9,16.8,39.6,16.7,41.1"/>
	<path class="st1" d="M47.8,42.5L52.3,26h3.9l-1.5,5.6h3.6l1.5-5.6h3.9l-4.6,16.5h-3.9l1.8-6.4h-3.6l-1.8,6.4H47.8z M75.6,34.2
		C74,39.8,70.4,43,66.9,43c-3.7,0-5.3-3.2-3.7-8.8c1.4-5.2,4.9-8.6,8.5-8.6C76,25.6,76.8,29.8,75.6,34.2 M67.1,34.2
		c-0.6,2.1-0.9,4.7,1,4.7c1.7,0,2.9-2,3.6-4.7c0.6-2.2,0.6-4.6-1.1-4.6C68.9,29.6,67.7,32.1,67.1,34.2 M74.9,42.5L79.5,26h4.7
		l-0.8,10.3L88.3,26h4.7l-4.6,16.5h-3.5l1.4-5l0.8-2.6l1-3h0L83,42.5h-2.7l0.8-10.6h0l-0.5,2.4l-0.6,2.6l-1.6,5.6H74.9z M90.3,42.5
		L94.8,26h5.7c3.4,0,4.4,2.2,3.5,5.6c-1,3.6-3.1,5.8-6.5,5.8h-1.9l-1.4,5.1H90.3z M98.2,33.5c0.9,0,1.7-0.5,2.1-1.9
		c0.4-1.5-0.8-1.7-1.6-1.7h-1.1l-1,3.7H98.2z M106.3,37.7c0.3,0.7,0.5,0.7,0.8,1c0.2,0.3,0.6,0.4,1,0.4c1,0,1.7-0.4,1.9-1.2
		c0.7-2.5-6.6-0.8-4.8-7.1c1-3.5,3.6-5.3,6.6-5.3c2.5,0,3.5,1.3,3.7,3.2l-3.5,1.9c-0.2-0.6-0.4-0.8-0.6-1c-0.2-0.2-0.5-0.3-0.9-0.3
		c-0.9,0-1.3,0.3-1.5,0.9c-0.7,2.5,6.5,0.9,4.8,6.9c-1.1,3.8-3.9,5.7-7.1,5.7c-2.4,0-3.7-1.5-3.9-3.6L106.3,37.7z M128.3,34.2
		c-1.6,5.6-5.1,8.8-8.6,8.8c-3.7,0-5.3-3.2-3.7-8.8c1.4-5.2,4.9-8.6,8.5-8.6C128.7,25.6,129.5,29.8,128.3,34.2 M119.8,34.2
		c-0.6,2.1-0.9,4.7,1,4.7c1.7,0,2.9-2,3.6-4.7c0.6-2.2,0.6-4.6-1.1-4.6C121.6,29.6,120.3,32.1,119.8,34.2 M137.6,35l0.9-3.8L140,26
		h3.7l-4.6,16.5h-3.6l-1.7-9l-0.9,3.8l-1.5,5.2h-3.7l4.6-16.5h3.6L137.6,35z"/>
	<path class="st2" d="M44.5,53.8l2-7.7h2.6c1.2,0,2.1,0.4,1.7,1.9c-0.2,0.8-0.7,1.4-1.1,1.7c0.5,0.2,0.7,0.9,0.5,1.8
		c-0.4,1.7-1.5,2.3-2.9,2.3H44.5z M47.1,50.6l-0.4,1.4h0.8c0.4,0,0.8-0.1,1-0.7c0.2-0.7-0.2-0.7-0.8-0.7H47.1z M47.8,48l-0.3,1.3
		h0.7c0.4,0,0.7-0.2,0.8-0.7c0.2-0.6-0.2-0.6-0.6-0.6H47.8z M52.4,46.2h1.8L53,50.8c-0.2,0.8-0.3,1.4,0.5,1.4c0.6,0,1-0.6,1.2-1.4
		l1.2-4.6h1.8l-1.1,4.3C55.9,53,54.8,54,53,54c-1.7,0-2.4-0.9-1.7-3.5L52.4,46.2z M56.8,53.8l2-7.7h1.8l-2,7.7H56.8z M59.8,53.8
		l2-7.7h1.8L62,52.1h2.5L64,53.8H59.8z M64.8,53.8l2-7.7h2.4c1.8,0,2.6,1.1,1.9,3.7c-0.7,2.9-2.2,4-3.9,4H64.8z M67,52.1h0.4
		c0.8,0,1.5-0.6,1.8-2.1c0.4-1.6,0.1-2-0.8-2H68L67,52.1z M70.7,53.8l2-7.7h1.8l-2,7.7H70.7z M78.2,50.4l0.4-1.7l0.6-2.4h1.7l-2,7.7
		h-1.7l-0.9-4.2L76,51.4l-0.6,2.4h-1.7l2-7.7h1.7L78.2,50.4z M85.3,53.9h-1.2l0.1-0.8c-0.4,0.5-1,0.9-1.9,0.9
		c-1.4,0-2.3-1.3-1.6-3.9c0.6-2.4,2.1-4.1,3.9-4.1c1.3,0,2.1,1,1.9,2.8h-1.7c0-0.6-0.2-1-0.7-1c-0.7,0-1.3,0.9-1.6,2.2
		c-0.3,1.1-0.3,2.1,0.6,2.1c0.4,0,0.9-0.4,1.1-0.9h-0.8l0.4-1.7h2.5L85.3,53.9z M88.8,53.8l2-7.7h2.2L92.7,51l2.2-4.8H97l-2,7.7
		h-1.6l0.6-2.3l0.3-1.2l0.4-1.4h0l-2.3,4.9h-1.2l0.3-4.9h0l-0.2,1.1l-0.3,1.2l-0.7,2.6H88.8z M95.6,53.8l3.9-7.7h1.8l0,7.7h-1.8l0-1
		h-1.8l-0.5,1H95.6z M99.8,48.5l-1.3,2.7h1.1L99.8,48.5z M103.6,46.2h5l-0.5,2h-1.6l-1.4,5.6h-1.8l1.4-5.6h-1.6L103.6,46.2z
		 M107.5,53.8l2-7.7h4.5l-0.5,1.8h-2.7l-0.3,1.1h2.3l-0.5,1.8H110l-0.3,1.2h2.8l-0.5,1.8H107.5z M115.3,51.2l-0.7,2.7h-1.8l2-7.7
		h2.6c1.8,0,2.2,0.7,1.9,2.2c-0.2,0.9-0.7,1.6-1.4,1.9c0.5,0.3,0.8,0.5,0.4,2c-0.3,1-0.4,1.3-0.2,1.3l-0.1,0.2h-1.8
		c0-0.2,0.1-0.7,0.3-1.3c0.3-1,0.2-1.3-0.6-1.3H115.3z M115.8,49.5h0.7c0.6,0,0.9-0.2,1-0.7c0.1-0.5-0.1-0.8-0.5-0.8h-0.8
		L115.8,49.5z M118.9,53.8l2-7.7h1.8l-2,7.7H118.9z M121.4,53.8l3.9-7.7h1.8v7.7h-1.8l0-1h-1.8l-0.5,1H121.4z M125.6,48.5l-1.3,2.7
		h1.1L125.6,48.5z M127.8,53.8l2-7.7h1.8l-1.5,5.9h2.5l-0.5,1.8H127.8z M137,48.4c0-0.3,0-0.4-0.1-0.5c-0.1-0.1-0.3-0.1-0.4-0.1
		c-0.4,0-0.6,0.2-0.7,0.4c-0.3,1.1,3,0.4,2.3,3.2c-0.5,1.8-1.7,2.6-3.2,2.6c-1.4,0-2.1-1.2-1.8-2.6h1.7c0,0.3,0,0.5,0.1,0.6
		c0.1,0.1,0.3,0.2,0.5,0.2c0.4,0,0.8-0.2,0.9-0.6c0.3-1.2-3.1-0.4-2.3-3.3c0.4-1.6,1.6-2.4,3-2.4c1.5,0,1.9,1.1,1.7,2.4H137z"/>
	<path class="st2" d="M29.1,31.1c-0.8,0.2-3.2,1.4-4.5,2.3c-1.3,0.8-3.4,2.8-6.3,6.1c0.4-3.2,1.5-4.5,2.8-6.1c1.2-1.5,5.7-4.7,9.1-6
		L29.1,31.1z M58.4,16.2c-2.4,2.3-5.8,4.7-12.2,6.3c-0.4,0.8-9.6,29.7-10.5,32.7c-0.9,3-3.7,7.2-8,8.6c-4.3,1.3-7.7-0.1-10.5-2.5
		c0.9,2,2.3,4.8,6.7,5.6c4.4,0.7,9.3-1.7,11.1-4.1c1.8-2.3,4.5-8.7,5.6-11.8c1-3.1,5.6-17.9,7.8-25.6c5.4-1.5,11.7-5.6,14-8.7
		c2.3-3.1,3.8-8.1,1.2-14.2C64.2,11.1,60.8,14,58.4,16.2 M14.9,57.1l-9.7,0l8.5-34.2l2.1,0c0.3-0.9,1.4-2.3,2.3-3.3l-8.2,0l-9,41
		l14.8,0C15.4,59.7,15.2,58.4,14.9,57.1 M38.3,60.6c36.7,0,105.3,0,105.3,0l9.4-41l-90.8,0c-0.7,0.7-2.7,2.6-4.5,3.3l90.8,0
		L140.1,57c0,0-63.6,0-100.1,0C39.5,58.4,38.9,59.4,38.3,60.6"/>
</g>
</svg>
