<svg width="83" height="56" viewBox="0 0 83 56" fill="none" xmlns="http://www.w3.org/2000/svg">
<path d="M41.3973 3.30149C39.1824 3.30149 37.072 3.90746 35.275 4.95224V0H29.1108V15.5254V15.609C29.1108 22.4 34.6272 27.9373 41.3973 27.9373C48.1884 27.9373 53.7257 22.4209 53.7257 15.609C53.7257 8.79702 48.2093 3.30149 41.3973 3.30149ZM41.46 25.1791C36.4869 25.1791 32.4332 21.1254 32.4332 16.1313H34.7735C34.7735 19.8299 37.7824 22.797 41.4391 22.797C44.1347 22.797 46.4959 21.1672 47.5406 18.8478L33.06 12.7463C34.3347 9.48657 37.3436 7.37612 41.1466 7.37612H48.2929V9.75821H41.46C39.5376 9.75821 37.7824 10.5104 36.6123 11.806L50.4033 17.4896C49.7765 21.8358 46.0153 25.1791 41.46 25.1791Z" fill="#A7A9AC"/>
<path d="M1.19446 45.8031C2.07207 46.3881 3.28401 46.6807 4.70491 46.3464C5.79148 46.0956 6.81536 45.5314 6.83625 43.9434C6.85715 40.2449 0.77655 43.7762 0.77655 35.9613C0.77655 30.7374 3.8273 29.3583 6.43924 29.4001C7.69297 29.4001 8.90491 29.6717 9.78252 30.1105C9.69894 31.4061 9.61536 32.7225 9.53178 34.0389C8.65416 33.4956 7.65118 33.2658 6.66909 33.3075C5.79148 33.3284 4.32879 33.5165 4.32879 35.3135C4.30789 38.5941 10.4303 35.8777 10.3885 42.6478C10.3467 47.4747 7.5258 49.5016 4.70491 50.3583C3.51386 50.6926 2.05118 50.8598 0.922819 50.609C1.0064 48.9792 1.08998 47.3911 1.19446 45.8031Z" fill="#A7A9AC"/>
<path d="M22.4659 39.9315C22.4241 44.424 20.0838 46.7852 16.6987 47.4539C13.3137 48.1434 11.057 46.43 11.0987 41.2688C11.1405 37.424 11.1614 33.5583 11.2032 29.7136C12.3525 29.7136 13.5017 29.7136 14.6719 29.6927C14.6301 33.1195 14.6092 36.5673 14.5674 39.9942C14.5465 42.3554 14.9853 44.2777 16.7614 43.9852C18.5376 43.7136 19.0181 41.7494 19.039 39.4927C19.0808 36.2121 19.1017 32.9315 19.1435 29.6509C20.2928 29.6509 21.442 29.6509 22.6122 29.6509C22.5495 33.0986 22.5077 36.5046 22.4659 39.9315Z" fill="#A7A9AC"/>
<path d="M23.4692 29.6718C24.8483 29.6718 26.2274 29.6718 27.6065 29.6718C31.5766 29.6718 33.4154 31.2598 33.3945 34.7285C33.3736 37.8419 31.4304 39.7643 28.1707 39.9732C27.7318 39.9941 27.2721 40.0359 26.8333 40.0568C26.8124 41.9165 26.7915 43.7762 26.7707 45.6568C25.6005 45.7822 24.4512 45.9285 23.2811 46.0956C23.3647 40.621 23.4274 35.1464 23.4692 29.6718ZM26.8751 37.0479C27.1677 37.027 27.4811 37.027 27.7736 37.0061C28.9647 36.9434 29.9259 36.4001 29.9468 34.7494C29.9677 33.1613 29.0065 32.6598 27.8154 32.6807C27.5229 32.6807 27.2095 32.7016 26.9169 32.7016C26.896 34.1434 26.8751 35.5852 26.8751 37.0479Z" fill="#A7A9AC"/>
<path d="M33.7914 29.6509C35.8601 29.6509 37.9078 29.6509 39.9765 29.6509C42.275 29.6509 44.1556 30.8628 44.1765 33.4957C44.1765 35.5225 43.3616 36.8598 41.669 37.3195C41.669 37.3404 41.669 37.3404 41.669 37.3613C42.7974 37.7166 42.8601 38.8658 43.5287 40.7255C43.9466 42.1046 44.3854 43.5046 44.8242 44.8837C43.6123 44.8628 42.3795 44.8419 41.1675 44.8419C40.9168 43.9225 40.666 43.024 40.4153 42.1046C39.7048 39.4927 39.2451 38.8449 37.9705 38.8658C37.7198 38.8658 37.4899 38.8658 37.2392 38.8867C37.2392 40.8927 37.2183 42.9195 37.2183 44.9255C36.0481 44.9673 34.878 45.0091 33.7078 45.0927C33.7287 39.9315 33.7496 34.7912 33.7914 29.6509ZM37.2183 35.9822C37.5317 35.9822 37.8242 35.9822 38.1377 35.9613C39.266 35.9404 40.6869 35.8986 40.6869 34.1852C40.6869 32.7643 39.475 32.5136 38.1586 32.5136C37.8451 32.5136 37.5526 32.5136 37.2392 32.5136C37.2392 33.6837 37.2392 34.833 37.2183 35.9822Z" fill="#A7A9AC"/>
<path d="M45.054 29.6509C48.1047 29.6509 51.1555 29.6509 54.2062 29.6509C54.2062 30.6539 54.2271 31.636 54.2271 32.6389C52.3256 32.5971 50.4241 32.5763 48.5226 32.5554C48.5226 33.621 48.5435 34.6658 48.5435 35.7315C50.3406 35.7733 52.1376 35.8151 53.9346 35.8986C53.9346 36.9016 53.9555 37.8837 53.9555 38.8867C52.1585 38.7822 50.3406 38.6986 48.5435 38.6569C48.5435 39.827 48.5644 40.9763 48.5644 42.1464C50.5495 42.23 52.5346 42.3554 54.5197 42.5225C54.5197 43.5255 54.5406 44.5285 54.5406 45.5106C51.3853 45.1972 48.2301 45.0091 45.0749 44.9255C45.0749 39.8061 45.054 34.7285 45.054 29.6509Z" fill="#A7A9AC"/>
<path d="M55.272 29.6509C57.0899 29.6509 58.9078 29.6509 60.7257 29.6718C61.6869 33.3494 62.6481 37.1315 63.6093 40.9971C63.6302 40.9971 63.6302 40.9971 63.6511 40.9971C64.5705 37.3404 65.4899 33.5583 66.4093 29.6718C68.1645 29.6718 69.8989 29.6927 71.6541 29.6927C71.7168 35.8986 71.7586 42.1255 71.8213 48.3315C70.6929 48.0598 69.5854 47.83 68.4571 47.6001C68.4362 43.024 68.3944 38.427 68.3735 33.8509C68.3526 33.8509 68.3526 33.8509 68.3317 33.8509C67.266 38.3852 66.2213 42.7524 65.1765 46.9733C64.1108 46.7852 63.0451 46.5971 61.9795 46.43C60.872 41.9792 59.7645 37.6539 58.678 33.4539C58.6571 33.4539 58.6571 33.4539 58.6362 33.4539C58.6989 37.633 58.7825 41.8121 58.8451 45.9912C57.7168 45.8449 56.5675 45.6986 55.4392 45.5942C55.3556 40.2658 55.3138 34.9583 55.272 29.6509Z" fill="#A7A9AC"/>
<path d="M72.7198 29.7134C75.7705 29.7343 78.8213 29.7343 81.872 29.7552C81.872 31.0925 81.872 32.4507 81.872 33.788C79.9914 33.6626 78.0899 33.5582 76.2093 33.4537C76.2093 34.8119 76.2302 36.1701 76.2302 37.5283C78.0064 37.7164 79.7825 37.9253 81.5586 38.1552C81.5586 39.4925 81.5586 40.8298 81.5586 42.1671C79.7825 41.8328 78.0273 41.5402 76.2511 41.2477C76.2511 42.7313 76.272 44.2358 76.272 45.7193C78.2153 46.1373 80.1586 46.6179 82.081 47.0985C82.081 48.4567 82.081 49.794 82.081 51.1522C79.0302 50.1701 75.9586 49.3134 72.887 48.582C72.8243 42.3134 72.7616 36.0029 72.7198 29.7134Z" fill="#A7A9AC"/>
<path d="M13.3139 49.0627C13.7109 49.0627 14.0452 49.2089 14.3378 49.4806C14.6303 49.7522 14.7557 50.1074 14.7557 50.5045C14.7557 50.9224 14.5467 51.1731 14.1288 51.2567C14.4213 51.2985 14.7557 51.5074 15.1527 51.8836C15.5288 52.2597 15.7169 52.7821 15.7169 53.4716C15.7169 54.1403 15.487 54.7254 15.0064 55.206C14.5676 55.6657 14.1079 55.8955 13.6691 55.8955H11.9139V49.0209H13.3139V49.0627ZM12.8124 49.9403V51.0268H13.3975C13.5228 51.0059 13.6482 50.9642 13.7318 50.8806C13.8363 50.7761 13.8781 50.6507 13.8781 50.5045C13.8781 50.3582 13.8154 50.2119 13.7109 50.1074C13.6064 50.003 13.4601 49.9403 13.293 49.9403H12.8124ZM12.8124 51.9462V55.0388H13.69V55.0179C13.8781 54.997 14.1079 54.8507 14.3796 54.5791C14.6721 54.2657 14.8393 53.9104 14.8393 53.4716C14.8393 53.0537 14.693 52.6985 14.4004 52.3851C14.1079 52.0925 13.7318 51.9462 13.3139 51.9462H12.8124Z" fill="#A7A9AC"/>
<path d="M27.9198 50.0029C28.6094 50.6924 28.9437 51.5074 28.9437 52.4895C28.9437 53.4506 28.6094 54.2865 27.9198 54.976C27.2303 55.6656 26.4153 55.9999 25.4332 55.9999C24.4511 55.9999 23.6362 55.6656 22.9467 54.976C22.2571 54.2865 21.9228 53.4715 21.9228 52.4895C21.9228 51.5283 22.2571 50.6924 22.9467 50.0029C23.6362 49.3133 24.4511 48.979 25.4332 48.979C26.4153 48.979 27.2303 49.3133 27.9198 50.0029ZM25.4332 49.8566C24.7019 49.8566 24.0959 50.1074 23.5735 50.6298C23.072 51.1312 22.8004 51.7581 22.8004 52.4895C22.8004 53.2208 23.0511 53.8268 23.5735 54.3492C24.0959 54.8715 24.7019 55.1223 25.4332 55.1223C26.1646 55.1223 26.7706 54.8715 27.2929 54.3492C27.7944 53.8268 28.0661 53.2208 28.0661 52.4895C28.0661 51.7581 27.8153 51.1521 27.2929 50.6298C26.7914 50.1283 26.1646 49.8566 25.4332 49.8566Z" fill="#A7A9AC"/>
<path d="M34.7527 55.9165L36.905 52.1762L35.108 49.0627H36.1318L37.4274 51.2986L38.7229 49.0627H39.7468L37.9498 52.1762L40.1229 55.9165H39.099L37.4483 53.0538L35.7975 55.9165H34.7527Z" fill="#A7A9AC"/>
<path d="M47.2065 49.0627V55.9374H46.308V49.0627H47.2065Z" fill="#A7A9AC"/>
<path d="M53.851 49.0627H54.6659L57.5077 53.9523V49.0627H58.4062V55.9374H57.6122L54.7495 50.9851V55.9374H53.851V49.0627Z" fill="#A7A9AC"/>
<path d="M70.7766 54.976C70.0661 55.6447 69.2721 55.979 68.3527 55.979C67.3915 55.979 66.5557 55.6447 65.8661 54.9551C65.1766 54.2656 64.8422 53.4507 64.8422 52.4686C64.8422 51.5074 65.1766 50.6716 65.8661 49.982C66.5557 49.2925 67.3706 48.9581 68.3527 48.9581C69.2512 48.9581 70.1288 49.3342 70.9228 50.0656L70.2542 50.6716C69.6482 50.1283 69.0004 49.8566 68.3318 49.8566C67.6213 49.8566 66.9945 50.1074 66.493 50.6298C65.9915 51.1313 65.7198 51.7581 65.7198 52.4686C65.7198 53.1999 65.9706 53.8059 66.493 54.3283C66.9945 54.8298 67.6213 55.1014 68.3318 55.1014C68.9586 55.1014 69.4601 54.9342 69.878 54.6208V52.5522H70.7766V54.976Z" fill="#A7A9AC"/>
</svg>
