<?xml version="1.0" encoding="utf-8"?>
<!-- Generator: Adobe Illustrator 24.1.0, SVG Export Plug-In . SVG Version: 6.00 Build 0)  -->
<svg version="1.1" id="Layer_1" xmlns="http://www.w3.org/2000/svg" xmlns:xlink="http://www.w3.org/1999/xlink" x="0px" y="0px"
	 viewBox="0 0 293 67" style="enable-background:new 0 0 293 67;" xml:space="preserve">
<style type="text/css">
	.st0{fill:#FFFFFF;}
	.st1{fill:#0455A4;}
</style>
<g>
	<path class="st0" d="M104.2,43.4c0-0.5-0.3-0.7-0.8-0.7h-0.9v2.4h0.4v-1h0.4l0.6,1h0.4l-0.7-1.1C104,44,104.2,43.8,104.2,43.4z
		 M102.8,43.7V43h0.5c0.3,0,0.5,0.1,0.5,0.4c0,0.4-0.3,0.4-0.6,0.4H102.8z M92.7,22.1v16.6c0,0,0.2,2.2-2.7,2c0,0-2.1,0.2-2.1-1.9
		V22.1h-6.7l0,18.7c0,0,0.2,5.2,5.5,5.3c4.6,0.1,5.5-1.7,5.8-2.3c0.5-0.8,0.8,3.5-2.4,4.4c0,0-2.2,0.9-7.4-0.6v6.4
		c0,0,7.8,2.7,12.5-1.2c3.6-3,4.3-5.5,4.3-10.6c0-4.7,0-20.2,0-20.2L92.7,22.1z M103.3,41.8c-1.1,0-2.1,0.9-2.1,2.1
		c0,1.2,1,2.1,2.1,2.1c1.1,0,2.1-0.9,2.1-2.1C105.4,42.7,104.4,41.8,103.3,41.8z M103.3,45.6c-0.9,0-1.7-0.7-1.7-1.7
		c0-1,0.7-1.7,1.7-1.7c0.9,0,1.7,0.7,1.7,1.7C105,44.9,104.2,45.6,103.3,45.6z M72.5,25.6v-3.5L66,22.3v25h6.7V32.3
		c0,0,0.5-4.4,5.8-4v-6.8C78.5,21.5,74.4,21,72.5,25.6z M208.4,21.2h-5.6v5.3h5.6V21.2z M231.7,21.2h-5.6v5.3h5.6V21.2z M133.8,19.7
		l10.7-5.4l13,6.8h3.2l-16.2-8.4l-13.6,7H133.8z M12.3,29.7h-5V18.4l-6.7,0.2v28.5h6.7V35h5v12h6.9V18.6h-6.9V29.7z M55.9,21.5
		c-3.7,0.1-5.2,2.8-5.7,4.3c0-0.2,0.1-0.4,0.1-0.6v-3h-6.4v25h6.9V28.8c0,0,0.3-1.5,2.6-1.5c2.3,0,2,1.7,2,1.7v18.3h6.9V26.4
		C62.2,26.4,62.5,21.3,55.9,21.5z M31.1,21.6c-10.2,0.2-9.2,14-9.2,14c0,0,0,0,0,0c0.8,17.2,17.7,11.3,17.7,11.3v-5.8
		c-0.5,0.2-2.2,1.6-6.6,1.1c-3.1-0.4-3.9-3.2-4-5.3l11.5,0v-5.5C40.5,20.8,31.1,21.6,31.1,21.6z M34.2,31.7h-5.3
		c0-1.9,0.5-4,2.5-4.1C34.8,27.4,34.2,31.7,34.2,31.7z M142.1,11.4l-16.3,8.4h3l14.8-7.5L142.1,11.4z M247.2,28.2
		c-1.9,0-3.9,0.9-5,2.2h-0.1v-9.3h-7.6v4.6h2v16.8h-2v4.6h6.3l1-1.7h0.1c1.3,1.3,3.2,2.1,5,2.1c5.2,0,7.1-4.4,7.1-9.7
		S252.4,28.2,247.2,28.2z M245,42.9c-1.3,0-2.3-0.6-2.8-0.9v-8.2c0.5-0.4,1.5-0.9,2.8-0.9c2.5,0,3.1,2.2,3.1,5.1
		C248.1,40.8,247.4,42.9,245,42.9z M231.7,28.6h-7.6v4.6h2v9.4h-2v4.6h9.6v-4.6h-2V28.6z M264.6,28.2c-7.3,0-9.8,3.8-9.8,9.7
		c0,5.9,2.6,9.7,9.9,9.7c2.4,0,4.7-0.2,7.3-0.9l-0.7-4.5c-2.5,0.7-4.3,0.7-5.8,0.7c-2.9,0-4.6-1.5-4.8-3.8h11.8
		C273.3,33.5,272.7,28.2,264.6,28.2z M267,35.7h-6.3c0.2-2,1.4-3.2,3.6-3.2C266.8,32.5,267.3,33.9,267,35.7z M281.3,31.6L281.3,31.6
		l-0.1-3h-7.6v4.6h2v9.4h-2v4.6h9.7v-4.6h-2.1v-8c1.5-0.7,3.9-1.1,6.2-1.1v-5.2C284.5,28.2,282.3,29.9,281.3,31.6z M290.5,25.2
		c-1.1,0-2.1,0.9-2.1,2.1c0,1.2,1,2.1,2.1,2.1c1.1,0,2.1-0.9,2.1-2.1C292.6,26,291.6,25.2,290.5,25.2z M290.5,28.9
		c-0.9,0-1.7-0.7-1.7-1.7c0-1,0.7-1.7,1.7-1.7c0.9,0,1.7,0.7,1.7,1.7C292.2,28.2,291.4,28.9,290.5,28.9z M291.5,26.7
		c0-0.5-0.3-0.7-0.8-0.7h-0.9v2.4h0.4v-1h0.4l0.6,1h0.4l-0.7-1C291.2,27.3,291.5,27.1,291.5,26.7z M290.1,27.1v-0.7h0.5
		c0.3,0,0.5,0.1,0.5,0.3c0,0.4-0.3,0.4-0.6,0.4H290.1z M221.1,25.6c0.4,0,1,0.1,1.6,0.2l0.5-4.3c-1.1-0.2-2.3-0.3-3.4-0.3
		c-4.9,0-6.1,2.1-6.1,5.7v1.7l-2.4,0.3v3.6h2.4v10h-2v4.6h9.7v-4.6h-2.1v-10h3.6v-3.9h-3.6v-1.3C219.3,25.9,219.7,25.6,221.1,25.6z
		 M162.8,28.2c-6.7,0-9.3,3.8-9.3,9.7c0,5.9,2.5,9.7,9.3,9.7s9.3-3.8,9.3-9.7C172.1,32,169.5,28.2,162.8,28.2z M162.8,42.9
		c-2.6,0-3.3-1.9-3.3-5.1c0-3.2,0.7-5.1,3.3-5.1c2.6,0,3.3,1.9,3.3,5.1C166.1,41.1,165.4,42.9,162.8,42.9z M154.6,31.3V21.1H138
		c-0.1,0.1-0.2,0.3-0.5,0.6c-0.7,1.1-1.8,3.5,0.5,6.1c3,3.6,0,6.7,0,6.7l-0.1,0.1c-0.5,0.8-2.5,3.5,0.2,6.6c1.8,2.1,1.5,4.1,0.9,5.3
		c-0.1,0.2-0.2,0.5-0.3,0.6h6.6v-5.7h-4.7v-4.4h1.9v2.2h5.1V28.9h-5.1v2.5h-1.9v-4.5h8.4v4.4H154.6z M136.5,41.3
		c-2.6-3.1-0.7-5.8-0.1-6.6v-0.1c0,0,3-3.2,0.1-6.7h-0.1c-2.2-2.6-1.1-5-0.4-6.1c0.2-0.3,0.4-0.5,0.4-0.6h-6.8v5.7h4.7v14.7h-4.7
		v5.7h7.4c0.2-0.2,0.2-0.4,0.4-0.6C138,45.4,138.3,43.4,136.5,41.3L136.5,41.3z M197.7,43.1c-1.7,0-2.5-0.8-2.5-2.2v-8.4h4.4v-3.9
		h-4.4v-5.2h-4.9l-0.7,5.2l-2.4,0.3v3.6h2.4v9.4c0,3.8,1.7,5.6,6.1,5.6c1,0,3-0.1,4.1-0.3l-0.5-4.3
		C198.7,43.1,198.1,43.1,197.7,43.1z M180,31.6L180,31.6l-0.1-3h-7.6v4.6h2v9.4h-2v4.6h9.7v-4.6h-2.1v-8c1.5-0.7,3.9-1.1,6.2-1.1
		v-5.2C183.2,28.2,181.1,29.9,180,31.6z M208.4,28.6h-7.6v4.6h2v9.4h-2v4.6h9.6v-4.6h-2V28.6z"/>
	<rect x="113.6" y="9.2" class="st1" width="2.9" height="48.6"/>
</g>
</svg>
