<?xml version="1.0" encoding="utf-8"?>
<!-- Generator: Adobe Illustrator 24.1.0, SVG Export Plug-In . SVG Version: 6.00 Build 0)  -->
<svg version="1.1" id="Layer_1" xmlns="http://www.w3.org/2000/svg" xmlns:xlink="http://www.w3.org/1999/xlink" x="0px" y="0px"
	 viewBox="0 0 165.6 67" style="enable-background:new 0 0 165.6 67;" xml:space="preserve">
<style type="text/css">
	.st0{fill:#EC1C24;}
	.st1{fill:#FFFFFF;}
	.st2{fill:#EC1B2E;}
</style>
<g>
	<g>
		<rect x="0" y="7" class="st0" width="165.6" height="53"/>
	</g>
	<polygon class="st1" points="110,28.1 117.3,28.1 115.4,34.1 107.8,34.1 	"/>
	<path class="st1" d="M165.6,53.8l-11.4,0c0,0,0.9-2.6,1-2.8c2.1-5.4,3.3-9.4,5.5-14.7c-5.6,0-17.4,0-17.4,0c-0.1,0-1.7,0.2-3.4,1.3
		c-0.5,0.4-1.6,2.1-1.6,2.1L133,53.8l0,0c0,0-8.8,0.1-8.8,0c0-0.1,4.6-12,4.6-12l5.5,0l2.1-5.4h-5.6l3-8.4h-7.4c0,0-3.2,8.4-3.2,8.4
		c0,0-4.3,0-4.3,0l-2.3,5.4l4.6,0l-4.6,12c0,0-8.3,0-9,0c-0.1,0,4.6-11.9,6.8-17.4c-3,0-5.4,0-7.6,0c-2.2,5.6-6.5,17.4-6.5,17.4
		h-7.3l-1.6-7.2c0,0,11.4-10.2,11.3-10.2c-0.1,0-8.7,0-8.7,0l-9.1,8l6.3-16.4h-6.9l-9.9,25.7l-6.6,0c0,0,0.9-2.6,1-2.8
		c2.1-5.4,3.3-9.4,5.5-14.7c-5.6,0-17.4,0-17.4,0c-0.1,0-1.7,0.2-3.4,1.3c-0.5,0.4-1.6,2.1-1.6,2.1l-5.2,14.2h-6.6l6.7-17.4H34.2
		c0,0,1.8-4.3,1.8-4.3s-13.2,0-13.2,0l1.4-4.1L0,28.1l0,6.6h14.4L4.8,60l7.2,0l8.4-21.7h6L17.9,60l7.1,0l6.8-17.5h6L31,60l11.2,0
		c0,0,2.5-2.9,3.8-4.2c0.5,2.6,1.9,3.8,3.4,4.2c0,0,5.1,0,5.1,0s3.1-3.1,4.5-4.2c0.9,1.3,0.1,1.6,2.2,3.2c0.5,0.4,1.6,0.8,2.2,1
		c0.1,0,5.6,0,5.6,0l4.6-4.3L72.1,60c0,0,7,0,7,0c-0.1,0,5.1-13.1,5.1-13.1l0.2,0.1L87.3,60h7.6c0,0,3-2.7,4.6-4.2
		c0.1,2.2,2.9,3.8,4,4.2c0.1,0,8.2,0,8.2,0s2.6-2.8,4.2-4.2c-0.6,3.1,2.1,4,3.6,4.2c0.1,0,8.2,0,8.2,0l4.6-4.2
		c0.5,2.6,1.9,3.8,3.5,4.2c0.1,0,5,0,5,0s3.1-3.1,4.5-4.2c0.9,1.3,0.1,1.6,2.2,3.2c0.5,0.4,1.6,0.8,2.3,1c0.1,0,15.8,0,15.8,0V53.8z
		"/>
	<polygon class="st2" points="144.9,42.4 140.4,53.8 146.4,53.8 150.9,42.4 	"/>
	<polygon class="st2" points="58.6,42.4 54.1,53.8 60.1,53.8 64.6,42.4 	"/>
	<path class="st1" d="M155.2,25.1c0-1.4,1.1-2.5,2.5-2.5c1.4,0,2.4,1.1,2.4,2.5c0,1.4-1.1,2.5-2.4,2.5
		C156.3,27.6,155.2,26.5,155.2,25.1z M157.6,28.1c1.6,0,3-1.3,3-3c0-1.7-1.4-3-3-3c-1.7,0-3.1,1.3-3.1,3
		C154.6,26.8,156,28.1,157.6,28.1z M157,25.3h0.6l0.9,1.5h0.6l-1-1.5c0.5-0.1,0.9-0.3,0.9-1c0-0.7-0.4-1-1.2-1h-1.3v3.5h0.5V25.3z
		 M157,24.9v-1.1h0.7c0.4,0,0.8,0.1,0.8,0.5c0,0.5-0.4,0.6-0.8,0.6H157z"/>
</g>
</svg>
