<?xml version="1.0" encoding="utf-8"?>
<!-- Generator: Adobe Illustrator 24.1.3, SVG Export Plug-In . SVG Version: 6.00 Build 0)  -->
<svg version="1.1" id="Layer_1" xmlns="http://www.w3.org/2000/svg" xmlns:xlink="http://www.w3.org/1999/xlink" x="0px" y="0px"
	 viewBox="0 0 122 56" style="enable-background:new 0 0 122 56;" xml:space="preserve">
<style type="text/css">
	.st0{fill-rule:evenodd;clip-rule:evenodd;fill:#A7A9AC;}
</style>
<path class="st0" d="M15.4,49.9c-0.8,1.2-2.3,2-3.7,2.1c-0.3,0-2.4,0-2.5,0c-0.1,0-4.4,0-4.7,0c-0.8-0.1-1.6-0.6-1.9-1.4
	c-0.3-0.9-0.1-1.9,0.7-2.5v-7c-0.6-0.4-0.9-1.1-0.8-1.8c0-1.3,1-2.2,2.3-2.2c0.4,0,4.2,0,4.4,0c0.2,0,2.1,0,2.4,0
	c1.5,0.1,3,0.9,3.8,2.1c1.1-1.4,2.8-2.2,4.5-2.4h-7.7c-0.7,0-1.2-0.3-1.6-0.9c-0.1-0.2-0.3-0.5-0.3-0.7c-0.1-0.3-0.1-6.3-0.1-6.9
	c0-0.2,0-0.5,0.1-0.7c0.1-0.3,0.1-0.5,0.3-0.8c0.3-0.4,0.7-0.7,1.2-0.8c0.1,0,0.2,0,0.3,0h3.2V14.5h-2l0,3.8c-0.1,1.1-1,1.7-2,1.8
	h-7c-1.2,0-2.1-1.1-2.1-2.3V6.1c0-0.4,0.1-0.7,0.2-1c0.3-0.7,0.9-1.2,1.7-1.3l36.5,0c0.3,0,0.6,0,0.9,0.1c0.2-0.1,0.4-0.1,0.6-0.1
	h26.7c1.6,0,4.1,0.5,5.5,0.9c2.9,0.8,5.2,3.5,5.9,6.4l0-4.9c0-0.4,0.1-0.7,0.2-1c0.3-0.7,0.9-1.2,1.7-1.3h19.9c0.2,0,0.5,0,0.7,0.1
	c0.2-0.1,0.5-0.1,0.8-0.1h14c1.3,0,2.4,1,2.4,2.3l0,6.1c0,0.4-0.1,0.8-0.2,1.1c-0.2,0.5-0.7,0.9-1.3,1.1c-0.2,0.1-0.4,0.1-0.5,0.1
	h-3c0,2.7,0,10.5-0.1,12.6c-0.1,1.3-0.4,2.6-0.7,3.8c-0.9,3.1-3,5.9-6.6,5.9H93.6c-0.7,0-1.4-0.1-2-0.3c-4.7-1.4-6.5-5.9-6.5-10.5
	V14.6h-2.9c-0.8,0-1.4-0.4-1.8-1.1c0,2.7-1.4,4.9-3.3,6.6c0.6,0.7,1,1.3,1.4,2.1c0.4-0.7,1.1-1.2,1.9-1.1h2.4h0c1.3,0,1.9,1,2,2.2
	l0,4.5c0,1.6-0.4,3.1-1.1,4.5c-0.8,1.6-2,3-3.6,4c-0.6,0.3-1.2,0.5-1.9,0.6h-8.4c-1.7-0.1-2.9-1.5-3.7-2.8c-0.4-0.6-0.6-1.2-0.8-1.9
	L65,30.6l-0.4-2.4l0,6.9l-0.1,0.4c-0.2,0.6-0.8,1.1-1.4,1.2l-0.6,0.1h-1.9c0.7,0.1,1.3,0.2,1.9,0.4c0.8-0.6,2-0.5,2.8,0.2
	c0.3-0.2,0.9-0.3,1.3-0.4l4.6,0c0,0,0.5,0.1,0.5,0.1c0.3-0.1,0.3-0.1,0.7-0.1l4.6,0c0.3,0,0.7,0.2,1,0.3c0.3-0.2,0.9-0.3,1.3-0.3
	c0.3,0,4.2,0,4.4,0c0.1,0,0.2,0,0.3,0h3.4c1,0,1.8,0.8,1.8,1.8v3.1c0,0.9-0.6,1.7-1.5,2V45c0.4,0.1,0.4,0.1,0.8,0.4l1.3-4.9
	c0.1-0.2,0.2-0.4,0.3-0.6c0-0.2,0-0.4,0-0.6l0.2-0.8c0.2-0.8,0.9-1.4,1.7-1.4h3.4c0.8,0,1.5,0.6,1.7,1.4l0.2,0.9
	c0-0.7,0.3-1.4,0.9-1.8c0.5-0.4,1-0.5,1.6-0.5h3.9c0.1,0,0.2,0,0.3,0c1.5-0.3,3.5,0.5,4.6,1.5c0.1-0.9,0.9-1.5,1.8-1.5h3.7
	c0.1,0,0.2,0,0.3,0c0.1,0,0.2,0,0.3,0h3.6c1,0,1.8,0.8,1.8,1.8c0,0.5,0,1.3-0.1,1.7l-1.9,4.4c0.1,0,0.6,0.1,0.7,0.1
	c0.8,0.3,1.3,1.1,1.4,1.9l0,3.3c0,0,0,0,0,0c0,1-0.8,1.8-1.8,1.8h-3.9c-0.1,0-0.2,0-0.3,0c-0.1,0-0.2,0-0.3,0H110
	c-0.8,0-1.5-0.6-1.7-1.4c-1,0.8-3,1.6-4.3,1.3c-0.1,0-0.2,0-0.3,0h-3.8c-0.3,0-0.7,0-1-0.1C98.5,52,98,52,97.7,52l-4,0
	c-0.5,0-1-0.1-1.4-0.4c-0.5,0.4-1,0.4-1.7,0.5c-0.8,0-1.8,0-2.6-0.1C87.8,52,87.6,52,87.4,52h-3.5c-0.1,0-0.2,0-0.3,0
	c-0.1,0-4.4,0-4.6,0c-0.3,0-0.7-0.2-1-0.3C77.6,51.9,77,52,76.7,52l-4.6,0c0,0-0.5-0.1-0.5-0.1C71.3,52,71.3,52,70.9,52l-4.6,0
	c-0.8-0.1-1.4-0.5-1.8-1.1c-1.2,0.8-2.7,1.3-4.2,1.4c-2.4,0.1-4.3-0.7-5.8-2.8v0.8c0,1-0.8,1.8-1.8,1.8h-2.3c-0.6,0-1.2-0.3-1.5-0.9
	l-0.4-0.6c-0.4,1.2-1.3,1.5-2.5,1.5c-0.9,0-2.4,0.1-3.1-0.3c-0.3,0.2-0.8,0.3-1.2,0.3l-4.6,0c-0.2,0-0.7-0.2-0.7-0.2
	c-0.4,0.1-1,0.2-1.4,0.2l-4.4,0c-0.2,0-0.5-0.1-0.7-0.2c-0.3,0.1-0.7,0.2-1.1,0.2c-0.8,0-1.5,0-2.3,0c-0.9-0.1-1.7-0.3-2.1-1.2
	c-1,0.8-2.4,1.3-3.7,1.4C20.4,52.3,17.5,52.4,15.4,49.9z M83.4,19.4c-1.1,0-2.1,0-3.2,0c0.7-0.9,1.2-2,1.6-3.1c0.5,0,1.1,0,1.6,0
	V19.4z M86.5,35.3H84c0.4-0.6,0.8-1.2,1.2-1.8C85.5,34.2,86,34.8,86.5,35.3z M15.4,52.3c1.3,1,2.9,1.6,4.5,1.7
	c1.5,0.1,3.1-0.2,4.5-0.9c0.7,0.5,1.4,0.6,2.2,0.7c1,0.1,2.6,0.1,3.5-0.1c0.2,0,0.4,0.1,0.5,0.1l4.5,0c0.5,0,0.9-0.1,1.4-0.1
	c0.2,0.1,0.5,0.1,0.7,0.1l4.6,0c0.4,0,0.8-0.1,1.2-0.2c1.2,0.3,4.3,0.3,5.5-0.4c0.6,0.4,1.3,0.6,1.9,0.6h2.3c1,0,1.9-0.4,2.6-1.1
	c2.5,1.7,6.1,1.7,8.8,0.4c0.6,0.4,1.1,0.5,1.7,0.7c0.4,0.1,5.3,0.1,5.5,0l0.1,0c0.1,0,0.3,0,0.5,0l4.6,0c0.4,0,0.9-0.1,1.3-0.2
	c0.2,0.1,0.4,0.1,0.6,0.1c0.6,0.1,9,0,9.5,0c0.9,0.1,1.7,0.1,2.6,0.1h0l1.1-0.1c0.2,0,0.4-0.1,0.5-0.1c0.2,0.1,0.8,0.2,1.1,0.2
	l4.3,0c0.4,0,0.7,0,1.1-0.1c0.4,0.1,0.7,0.1,1.1,0.1h4.5c1.2,0,2.4-0.3,3.5-0.8c0.6,0.5,1.4,0.8,2.2,0.8h8.2c2,0,3.5-1.6,3.5-3.5v0
	l0-3.3c0-1.2-0.6-2.3-1.5-3l1.2-2.7c0.4-0.8,0.3-1.5,0.3-2.4c0-2-1.6-3.5-3.5-3.5h-4.5c1.6-2.1,2.5-5.4,2.6-8
	c0.2-2.1,0.1-8.3,0.1-11c0.8,0.1,1.5,0,2.3-0.2c1.8-0.5,2.8-2.2,2.8-4l0-6.1c0-2.3-1.9-4.1-4.2-4.1h-14c-0.1,0-0.2,0-0.3,0
	c-0.1,0-0.3,0-0.4,0.1C102.3,2,82.5,2,81.8,2c-1.7,0.1-3,1.5-3.4,3.1C77.3,4,76.2,3.4,74.7,3c-1.6-0.4-4.1-0.9-5.9-0.9
	c-0.7,0-27.1,0-27.4,0.1C41.2,2,4.8,2,3.9,2C3,2.1,2.1,2.6,1.5,3.3c-0.7,0.8-1,1.8-1,2.8v11.6c0,2.2,1.6,4.1,3.8,4.1h7
	c0.9,0,1.6-0.2,2.3-0.8v3.3c-0.7,0-1.4,0-2.1,0.1c-1.9,0.3-3.1,2.1-3.1,3.9c0,0.6,0,6.8,0.1,7H4.7c-1.6,0-3.1,0.9-3.7,2.4
	c-0.2,0.4-0.3,1.1-0.3,1.5c0,0.9,0.3,1.8,0.8,2.5v5.5c-1.6,2-0.8,5.4,1.7,6.2l0.8,0.2c0.2,0,5.1,0.1,5.5,0.1l2.2,0
	c1,0,2-0.4,2.9-0.9C14.9,52.7,15.2,52.5,15.4,52.3z"/>
<path class="st0" d="M20.5,36.9C20.6,36.9,20.6,36.9,20.5,36.9L20.5,36.9C20.5,36.9,20.5,36.9,20.5,36.9z"/>
<path class="st0" d="M97.4,40.3l0.6,2.5V41C97.8,40.8,97.6,40.6,97.4,40.3z"/>
<path class="st0" d="M38.6,35.3c-0.5,0-1.1,0-1.6,0c0,0-0.1,0-0.1,0l0-7.3c0-1.8-1.2-3.3-2.9-3.7c-0.3-0.1-0.6-0.1-0.9-0.1h-1.7
	v-3.5c0.7,0.7,1.7,1.1,2.8,1.1h6.6c0.1,0,0.2,0,0.3,0c0.8-0.1,1.6-0.4,2.3-1v3.3c-0.5,0-1,0-1.6,0c-2,0.2-3.2,2-3.3,3.9
	C38.5,28.6,38.6,35.1,38.6,35.3z M55.6,38.5c1-0.9,2.2-1.5,3.6-1.6H42.3c-1,0-1.7-0.7-1.9-1.7c-0.1-0.3-0.1-6.6-0.1-7.1
	c0-0.2,0-0.5,0.1-0.7c0.1-0.3,0.2-0.6,0.4-0.8c0.3-0.4,0.7-0.6,1.2-0.7c0.1,0,0.2,0,0.3,0h2.8V14.4h-2.3c0,0.8,0,3.3-0.1,3.9
	c-0.1,0.4-0.2,0.7-0.4,1c-0.3,0.5-1,0.7-1.5,0.7h-6.6c-0.8,0-1.5-0.4-1.8-1.1c-0.1-0.3-0.2-0.6-0.2-1v-3.6h-2.4v11.6h3.4
	c1,0,1.9,0.6,2,1.6c0,0.1,0,7.1,0,7.4c-0.1,1.1-1,1.6-2.1,1.7H21.2c1.3,0.1,2.5,0.6,3.4,1.4c0.3-0.5,0.9-1,1.5-1.1
	c0.7-0.1,5.1-0.1,5.8,0.1c0.8-0.3,3.7-0.3,4.5,0.1c0.3-0.2,0.8-0.3,1.2-0.3l4.6,0c0.3,0,0.7,0.1,0.9,0.3c0.3-0.2,1-0.3,1.4-0.3h3.9
	c0.5,0,1,0.2,1.3,0.6c0.1-0.1,0.1-0.1,0.2-0.2c0.4-0.3,0.9-0.4,1.4-0.4h2.1c0.3,0,0.7,0,1,0.2C54.9,37.4,55.4,37.9,55.6,38.5z"/>
<path class="st0" d="M61.4,42.7c-0.1-0.4-0.4-1-0.7-1.3v1.3H61.4z"/>
<path class="st0" d="M60,36.9h-0.2C59.9,36.9,59.9,36.9,60,36.9C59.9,36.9,60,36.9,60,36.9z"/>
<path class="st0" d="M36.1,41.4c0,0-0.1,0.1-0.1,0.1l-0.3,0.4l-1,1.5l1.4,2.9V41.4z"/>
<path class="st0" d="M27.3,45.2c0,0.1,0,0.3,0,0.4l0.1-0.2L27.3,45.2z"/>
<path class="st0" d="M102.6,16.3c0.2,0,0.4,0.1,0.6,0.1h0.6v7.5h-2.6l0-7.5C101.6,16.4,102.1,16.4,102.6,16.3z M102.6,14.4
	c-0.2,0.1-0.4,0.1-0.7,0.1h-2.6v8.9c0,0.7,0.2,1.6,0.5,2.1c0.1,0.1,0.2,0.1,0.3,0.1h4.9c0.4-0.4,0.5-1.2,0.5-1.8v-9.3h-2.3
	C103,14.6,102.8,14.5,102.6,14.4z"/>
<path class="st0" d="M64.4,27.2c-0.1-0.5-0.3-1.1-0.7-1.5c-0.2-0.2-0.5-0.4-0.9-0.4h-3.5v0.8h3.1c0.2,0,0.4,0,0.6,0.1
	C63.6,26.3,64.1,26.7,64.4,27.2z"/>
<path class="st0" d="M64.4,14.6h-5v0.9H64c0.3,0,0.6,0,0.9-0.1c0.1,0,0.2-0.1,0.3-0.2c0-0.1,0-0.1,0-0.2
	C64.9,14.8,64.6,14.6,64.4,14.6z"/>
<path class="st0" d="M9.5,39.7c0.4,0.1,0.8,0.2,0.9,0.5c0.2,0.3,0.2,0.5,0.2,0.9v1.5c0,0.3,0,0.6-0.2,0.8c-0.1,0.3-0.5,0.4-1,0.5
	v0.9c0.5,0,0.8,0.2,0.9,0.5c0.1,0.3,0.2,0.6,0.2,0.9v2c0,0.3,0,0.5-0.2,0.8c-0.1,0.2-0.5,0.4-0.9,0.4v0.9H10c0.5,0,1,0,1.6,0
	c0.5,0,1-0.2,1.5-0.5c0.5-0.3,0.8-0.6,1.1-1c0.2-0.4,0.4-0.9,0.4-1.4c0-0.9-0.3-1.6-0.9-2.1c-0.6-0.4-1.3-0.7-2.1-0.8v0
	c0.5-0.1,1-0.2,1.4-0.4c0.4-0.2,0.8-0.5,1.1-0.9c0.3-0.4,0.4-0.8,0.4-1.4c0-0.5-0.1-1-0.4-1.4c-0.3-0.4-0.6-0.7-1.1-0.9
	c-0.4-0.2-0.9-0.3-1.4-0.4c-0.5,0-0.9-0.1-1.4-0.1H9.5L9.5,39.7L9.5,39.7z M8.8,38.9H4.7c-0.1,0-0.2,0-0.3,0.1
	c-0.1,0.1-0.2,0.2-0.2,0.4c0,0.1,0,0.2,0.1,0.3c0.1,0.1,0.1,0.1,0.2,0.1C4.8,39.8,5,39.9,5,40c0,0.1,0.1,0.3,0.1,0.6v8
	c0,0.3,0,0.5-0.1,0.6c0,0.1-0.2,0.2-0.5,0.3c-0.1,0-0.2,0.1-0.2,0.1c-0.1,0.1-0.1,0.2-0.1,0.3c0,0.2,0.1,0.3,0.2,0.4
	c0.1,0,0.2,0.1,0.3,0.1h4.1V38.9z"/>
<path class="st0" d="M20.9,50.5c1.1-0.1,2-0.4,2.7-1c0.7-0.6,1.2-1.3,1.6-2.1c0.3-0.9,0.5-1.8,0.5-2.8c0-1-0.2-2-0.5-2.8
	c-0.3-0.9-0.9-1.6-1.6-2.1c-0.7-0.6-1.6-0.9-2.7-1v0.9c0.3,0.1,0.6,0.3,0.7,0.5c0.1,0.2,0.1,0.4,0.1,0.6v7.9c0,0.2,0,0.4-0.1,0.6
	c-0.1,0.2-0.3,0.4-0.7,0.5V50.5z M20.2,38.6c-1.1,0.1-2,0.4-2.7,1c-0.7,0.5-1.2,1.3-1.6,2.1c-0.3,0.9-0.5,1.8-0.5,2.8
	c0,1,0.2,2,0.5,2.8c0.3,0.9,0.9,1.6,1.6,2.1c0.7,0.6,1.6,0.9,2.7,1v-0.9c-0.3-0.1-0.6-0.3-0.7-0.5c-0.1-0.2-0.1-0.4-0.1-0.6v-7.9
	c0-0.2,0-0.4,0.1-0.6c0.1-0.2,0.3-0.4,0.7-0.5V38.6z"/>
<path class="st0" d="M29.1,46.1l-1.4,2.3c-0.1,0.2-0.3,0.4-0.5,0.6c-0.2,0.2-0.4,0.3-0.6,0.4c-0.1,0-0.2,0.1-0.3,0.2
	c-0.1,0.1-0.1,0.2-0.1,0.3c0,0.2,0.1,0.3,0.3,0.4c0.2,0,0.3,0.1,0.5,0.1h1.8c0.1,0,0.2,0,0.3,0c0.1,0,0.2,0,0.3-0.1
	c0.1,0,0.1-0.1,0.2-0.2c0-0.1,0.1-0.2,0.1-0.2c0-0.2-0.1-0.3-0.2-0.4c-0.1-0.1-0.3-0.1-0.4-0.2c-0.1-0.1-0.2-0.2-0.2-0.5
	c0-0.2,0.1-0.4,0.2-0.6c0.1-0.2,0.2-0.4,0.3-0.6l0.3-0.5L29.1,46.1z M33,42.7l1.1-1.8c0.1-0.2,0.3-0.4,0.5-0.6
	c0.2-0.2,0.4-0.3,0.6-0.5c0.1-0.1,0.2-0.1,0.3-0.2c0.1-0.1,0.2-0.2,0.2-0.3c0-0.2-0.1-0.3-0.3-0.3c-0.2,0-0.3-0.1-0.5,0h-2
	c-0.1,0-0.2,0-0.3,0c-0.1,0-0.2,0.1-0.3,0.1c0,0-0.1,0.1-0.1,0.1c0,0,0,0.1,0,0.2c0,0.1,0,0.2,0.1,0.3c0.1,0.1,0.2,0.1,0.3,0.2
	c0.1,0.1,0.3,0.2,0.4,0.3c0.1,0.1,0.1,0.2,0.1,0.4c0,0.2,0,0.3-0.1,0.4c-0.1,0.1-0.1,0.3-0.2,0.4l-0.2,0.4L33,42.7z M31.2,40.5
	c0-0.1-0.1-0.1-0.1-0.2c0-0.1,0-0.1,0-0.2c0-0.2,0.1-0.3,0.2-0.3c0.1,0,0.2-0.2,0.2-0.3c0-0.2-0.1-0.4-0.3-0.5
	c-0.2,0-0.4-0.1-0.6-0.1h-3.5c-0.2,0-0.4,0-0.6,0c-0.2,0-0.3,0.2-0.3,0.5c0,0.1,0,0.2,0.1,0.3c0.1,0.1,0.1,0.1,0.2,0.2
	c0.2,0.1,0.3,0.2,0.4,0.3c0.1,0.1,0.1,0.2,0.2,0.4l3.9,7.9c0,0.1,0.1,0.2,0.1,0.3c0,0.1,0.1,0.2,0.1,0.3c0,0.2-0.1,0.3-0.3,0.4
	c-0.1,0.1-0.2,0.2-0.3,0.4c0,0.3,0.1,0.4,0.4,0.5c0.2,0,0.5,0,0.7,0h3.5c0.2,0,0.4,0,0.6-0.1c0.2,0,0.3-0.2,0.3-0.4
	c0-0.1,0-0.2-0.1-0.3c-0.1-0.1-0.2-0.1-0.3-0.2c-0.1-0.1-0.2-0.2-0.3-0.2c-0.1-0.1-0.1-0.2-0.2-0.3L31.2,40.5z"/>
<path class="st0" d="M41.6,40.6c0-0.3,0-0.5,0.1-0.6c0-0.1,0.2-0.2,0.5-0.3c0.1,0,0.2-0.1,0.2-0.1c0.1-0.1,0.1-0.2,0.1-0.3
	c0-0.2-0.1-0.3-0.3-0.4c-0.1-0.1-0.3-0.1-0.3-0.1h-4.3c0,0-0.1,0-0.3,0.1c-0.1,0-0.2,0.2-0.3,0.4c0,0.1,0,0.2,0.1,0.3
	c0.1,0.1,0.1,0.1,0.2,0.1c0.3,0.1,0.4,0.2,0.5,0.3c0,0.1,0.1,0.3,0.1,0.6v8c0,0.3,0,0.5-0.1,0.6c0,0.1-0.2,0.2-0.5,0.3
	c-0.1,0-0.2,0.1-0.2,0.1C37,49.6,37,49.7,37,49.8c0,0.2,0.1,0.3,0.3,0.4c0.1,0,0.3,0.1,0.3,0.1h4.3c0,0,0.1,0,0.3-0.1
	s0.2-0.2,0.3-0.4c0-0.1,0-0.2-0.1-0.3c-0.1-0.1-0.1-0.1-0.2-0.1c-0.3-0.1-0.4-0.2-0.5-0.3c0-0.1-0.1-0.3-0.1-0.6V40.6z"/>
<path class="st0" d="M48.3,38.9h-3.9c-0.2,0-0.3,0-0.5,0.1c-0.2,0-0.3,0.2-0.3,0.4c0,0.2,0,0.3,0.1,0.3c0.1,0.1,0.2,0.1,0.3,0.1
	c0.2,0.1,0.4,0.2,0.5,0.3c0.1,0.1,0.2,0.3,0.3,0.5l5.6,9.6h2.3v-3.7L48.3,38.9z M51.9,43.8l0.8,1.5h0v-3.7c0-0.7,0.1-1.2,0.3-1.4
	c0.2-0.2,0.4-0.4,0.6-0.5c0.2-0.1,0.3-0.2,0.3-0.4c0-0.2-0.1-0.3-0.3-0.4c-0.2,0-0.3-0.1-0.4-0.1h-2.1c-0.1,0-0.2,0-0.4,0.1
	c-0.2,0-0.2,0.2-0.3,0.4c0,0.2,0.1,0.3,0.3,0.4c0.2,0.1,0.4,0.2,0.6,0.5c0.2,0.2,0.3,0.7,0.3,1.4L51.9,43.8L51.9,43.8z M44.8,47.8
	c-0.1,0.6-0.2,1-0.4,1.2c-0.2,0.2-0.4,0.3-0.5,0.4c-0.2,0.1-0.2,0.2-0.3,0.4c0,0.2,0.1,0.4,0.3,0.4s0.4,0,0.5,0h1.7
	c0.1,0,0.3,0,0.5,0c0.2,0,0.3-0.2,0.3-0.4c0-0.2-0.1-0.3-0.3-0.4c-0.2-0.1-0.3-0.2-0.5-0.4c-0.2-0.2-0.3-0.6-0.4-1.2v-4.6l-0.8-1.5
	h0L44.8,47.8L44.8,47.8z"/>
<path class="st0" d="M60.3,50.5c0.7,0,1.4-0.2,2.1-0.5c0.7-0.3,1.3-0.7,1.8-1.2v-3c0,0,0-0.1,0-0.2c0-0.1,0.1-0.2,0.3-0.3
	c0.1,0,0.1-0.1,0.2-0.2c0-0.1,0.1-0.2,0.1-0.3c0-0.2-0.1-0.4-0.2-0.4c-0.1,0-0.2,0-0.3,0h-3.6c-0.1,0-0.2,0-0.3,0.1
	c-0.2,0-0.3,0.2-0.3,0.4c0,0.1,0,0.2,0.1,0.3c0.1,0.1,0.2,0.1,0.3,0.2c0.3,0,0.5,0.1,0.5,0.2c0.1,0.1,0.1,0.2,0.1,0.3v2.7
	c0,0.1,0,0.3-0.1,0.5c-0.1,0.2-0.3,0.4-0.6,0.5L60.3,50.5L60.3,50.5z M60.3,39.5c0.6,0,1.2,0.3,1.7,0.8c0.5,0.5,0.9,1.2,1.1,2.2
	c0,0.2,0.1,0.3,0.2,0.4c0.1,0.1,0.2,0.2,0.4,0.2c0.2,0,0.4-0.1,0.4-0.2c0-0.1,0.1-0.2,0.1-0.3v-3.4c0,0,0-0.1,0-0.3
	c0-0.1-0.2-0.2-0.4-0.2c-0.2,0-0.4,0.1-0.5,0.3c-0.1,0.2-0.2,0.3-0.4,0.3c-0.1,0-0.3-0.1-0.8-0.2c-0.4-0.1-1-0.2-1.8-0.3L60.3,39.5
	L60.3,39.5z M58.8,40.9c0-0.3,0-0.6,0.1-0.8c0.1-0.3,0.3-0.5,0.6-0.6v-0.9c-0.9,0-1.7,0.3-2.4,0.8c-0.7,0.5-1.3,1.2-1.7,2.1
	c-0.4,0.9-0.6,1.9-0.6,3c0,1.1,0.2,2.1,0.6,3s1,1.6,1.7,2.1s1.5,0.8,2.4,0.8v-0.9c-0.3-0.1-0.5-0.3-0.6-0.6
	c-0.1-0.3-0.1-0.5-0.1-0.8V40.9z"/>
<path class="st0" d="M72.6,48.5c0,0.3,0,0.5-0.1,0.6c0,0.1-0.2,0.2-0.5,0.3c-0.1,0-0.2,0.1-0.2,0.1c-0.1,0.1-0.1,0.2-0.1,0.3
	c0,0.2,0.1,0.3,0.3,0.4c0.1,0,0.3,0.1,0.3,0.1h4.3c0,0,0.1,0,0.3-0.1c0.1,0,0.2-0.2,0.3-0.4c0-0.1,0-0.2-0.1-0.3
	c-0.1-0.1-0.1-0.1-0.2-0.1c-0.3-0.1-0.4-0.2-0.5-0.3c0-0.1-0.1-0.3-0.1-0.6v-8c0-0.3,0-0.5,0.1-0.6c0-0.1,0.2-0.2,0.5-0.3
	c0.1,0,0.2-0.1,0.2-0.1c0.1-0.1,0.1-0.2,0.1-0.3c0-0.2-0.1-0.3-0.3-0.4c-0.1,0-0.3-0.1-0.3-0.1h-4.3c0,0-0.1,0-0.3,0.1
	c-0.1,0-0.2,0.2-0.3,0.4c0,0.1,0,0.2,0.1,0.3c0.1,0.1,0.1,0.1,0.2,0.1c0.3,0.1,0.4,0.2,0.5,0.3c0,0.1,0.1,0.3,0.1,0.6V44h-1.3v0.9
	h1.3V48.5z M70.5,40.6c0-0.3,0-0.5,0.1-0.6c0-0.1,0.2-0.2,0.5-0.3c0.1,0,0.2-0.1,0.2-0.1c0.1-0.1,0.1-0.2,0.1-0.3
	c0-0.2-0.1-0.3-0.3-0.4c-0.1-0.1-0.3-0.1-0.3-0.1h-4.3c0,0-0.1,0-0.3,0.1c-0.1,0-0.2,0.2-0.3,0.4c0,0.1,0,0.2,0.1,0.3
	c0.1,0.1,0.1,0.1,0.2,0.1c0.3,0.1,0.4,0.2,0.5,0.3c0,0.1,0.1,0.3,0.1,0.6v8c0,0.3,0,0.5-0.1,0.6c0,0.1-0.2,0.2-0.5,0.3
	c-0.1,0-0.2,0.1-0.2,0.1C66,49.6,66,49.7,66,49.8c0,0.2,0.1,0.3,0.3,0.4c0.1,0,0.3,0.1,0.3,0.1h4.3c0,0,0.1,0,0.3-0.1
	s0.2-0.2,0.3-0.4c0-0.1,0-0.2-0.1-0.3c-0.1-0.1-0.1-0.1-0.2-0.1c-0.3-0.1-0.4-0.2-0.5-0.3c0-0.1-0.1-0.3-0.1-0.6V40.6z"/>
<path class="st0" d="M93.7,48.4c0.1,0.3,0.1,0.5,0,0.6c0,0.1-0.2,0.2-0.4,0.3c-0.1,0-0.2,0.1-0.2,0.2c0,0.1-0.1,0.1-0.1,0.3
	c0,0.2,0.1,0.3,0.3,0.4c0.2,0,0.3,0.1,0.5,0.1h3.8c0.2,0,0.3,0,0.5,0c0.2,0,0.3-0.2,0.3-0.4c0-0.1,0-0.2-0.1-0.3
	c-0.1-0.1-0.2-0.1-0.3-0.2c-0.2-0.1-0.3-0.2-0.4-0.4c-0.1-0.1-0.1-0.3-0.1-0.5l-2.3-9.6h-3.4l-0.2,0.8l1.5,6.7h-1.9l-0.2,0.9h2.2
	L93.7,48.4z M91.4,41L91.4,41l-1.9,6.7c-0.1,0.5-0.3,0.9-0.5,1.1c-0.2,0.2-0.4,0.4-0.5,0.5c-0.2,0.1-0.3,0.1-0.4,0.2
	c-0.1,0-0.2,0.2-0.2,0.3c0,0.2,0.1,0.3,0.3,0.4c0.2,0,0.4,0.1,0.5,0.1h1.7c0.2,0,0.3,0,0.5,0c0.2,0,0.3-0.2,0.3-0.4
	c0-0.1,0-0.3-0.1-0.3c-0.1-0.1-0.2-0.1-0.3-0.2c-0.3-0.1-0.4-0.2-0.5-0.4c-0.1-0.2-0.1-0.5,0-1l1.4-5.2L91.4,41z"/>
<path class="st0" d="M103.5,38.9h-3.9c-0.2,0-0.3,0-0.5,0.1c-0.1,0-0.2,0.2-0.2,0.4c0,0.2,0.1,0.3,0.2,0.4c0.1,0.1,0.3,0.1,0.4,0.2
	c0.1,0.1,0.2,0.2,0.2,0.3c0,0.1,0,0.3,0,0.4v8c0,0.3,0,0.5-0.1,0.6c0,0.1-0.2,0.2-0.5,0.3c-0.1,0-0.2,0.1-0.2,0.1
	C99,49.6,99,49.6,99,49.7c0,0.2,0.1,0.3,0.2,0.4c0.1,0,0.3,0.1,0.5,0.1h3.9L103.5,38.9L103.5,38.9z M104.2,39.7
	c0.4,0.1,0.7,0.3,0.8,0.6c0.1,0.3,0.2,0.6,0.1,1v6.5c0,0.3,0,0.6-0.1,1c-0.1,0.3-0.4,0.5-0.8,0.6v0.9c0.9,0,1.7-0.2,2.4-0.7
	c0.8-0.4,1.4-1.1,1.8-1.9c0.5-0.8,0.7-1.9,0.6-3.1c-0.1-1.3-0.3-2.4-0.8-3.2c-0.5-0.8-1-1.5-1.8-1.9c-0.7-0.4-1.5-0.6-2.4-0.6
	L104.2,39.7L104.2,39.7z"/>
<path class="st0" d="M118.2,47.1c0-0.1,0-0.1,0-0.3c0-0.1-0.2-0.2-0.4-0.2c-0.1,0-0.2,0-0.3,0.1c-0.1,0.1-0.1,0.2-0.1,0.3
	c-0.2,0.7-0.6,1.2-0.9,1.5c-0.4,0.3-0.9,0.6-1.7,0.7l-0.4,0.9h3.9L118.2,47.1z M110.3,41.9c0,0.1,0,0.1,0,0.3
	c0.1,0.1,0.2,0.2,0.4,0.2c0.1,0,0.2,0,0.3-0.1c0.1-0.1,0.1-0.2,0.1-0.3c0.2-0.6,0.4-1,0.8-1.4c0.4-0.4,0.9-0.6,1.6-0.7l0.4-0.9h-3.7
	L110.3,41.9L110.3,41.9z M118.2,38.9h-3.6L110,49.4v0.8h3.7l4.6-10.4V38.9z"/>
<path class="st0" d="M83.8,39.7c0.7,0.1,1.2,0.3,1.6,0.7c0.4,0.4,0.7,0.9,0.9,1.5c0,0.1,0.1,0.2,0.1,0.3c0.1,0.1,0.1,0.1,0.3,0.1
	c0.2,0,0.4-0.1,0.4-0.2c0-0.1,0.1-0.2,0.1-0.2v-3.1h-3.4V39.7z"/>
<path class="st0" d="M83.8,44.9c0.3,0.1,0.6,0.3,0.7,0.5c0.2,0.3,0.3,0.5,0.3,0.8c0,0.1,0.1,0.2,0.1,0.3c0.1,0.1,0.2,0.1,0.3,0.2
	c0.2,0,0.3-0.1,0.4-0.3c0-0.2,0-0.3,0-0.4v-3.3c0-0.1,0-0.2,0-0.4c0-0.2-0.1-0.3-0.4-0.3c-0.2,0-0.3,0.1-0.3,0.2
	c-0.1,0.1-0.1,0.2-0.1,0.3c-0.1,0.3-0.2,0.6-0.3,0.8c-0.2,0.2-0.4,0.4-0.7,0.5V44.9z"/>
<path class="st0" d="M83.8,50.2h3.5v-3c0,0,0-0.1,0-0.3c0-0.1-0.2-0.2-0.4-0.2c-0.1,0-0.2,0.1-0.3,0.1c-0.1,0.1-0.1,0.2-0.2,0.3
	c-0.2,0.6-0.5,1.1-1,1.5s-1,0.6-1.6,0.7V50.2z"/>
<path class="st0" d="M78.6,39.3c0,0.1,0,0.2,0.1,0.3c0.1,0.1,0.1,0.1,0.2,0.1c0.3,0.1,0.4,0.2,0.5,0.3c0,0.1,0.1,0.3,0.1,0.6v8
	c0,0.3,0,0.5-0.1,0.6c0,0.1-0.2,0.2-0.5,0.3c-0.1,0-0.2,0.1-0.2,0.1c-0.1,0.1-0.1,0.2-0.1,0.3c0,0.2,0.1,0.3,0.3,0.4
	c0.1,0,0.3,0.1,0.3,0.1h4V38.8h-4c0,0-0.1,0-0.3,0.1C78.7,39,78.6,39.1,78.6,39.3z"/>
<path class="st0" d="M27.9,27.9V12.7h6v5.2c0,0.2,0,0.4,0.1,0.4c0,0,0.1,0.1,0.2,0.1h6.7c0.1,0,0.2-0.1,0.2-0.2c0-0.1,0.1-0.3,0-0.4
	V6.5c0-0.4,0-0.7-0.1-0.8c-0.1-0.1-0.2-0.2-0.3-0.1H4.2c-0.1,0-0.1,0.1-0.2,0.2C4,5.8,4,6,4,6.1v11.6c0,0.2,0,0.3,0.1,0.4
	c0.1,0.1,0.1,0.1,0.2,0.1h7c0.1,0,0.1,0,0.2,0c0.1,0,0.1-0.1,0.1-0.2v-5.3h5.6v15.2h-5c-0.1,0-0.1,0.1-0.2,0.2
	c0,0.1-0.1,0.2-0.1,0.3v6.2c0,0.2,0,0.3,0.1,0.4c0,0.1,0.1,0.1,0.1,0.1h20.8c0.1,0,0.2,0,0.2,0c0.1,0,0.1-0.1,0.1-0.2v-6.8
	c0-0.1,0-0.2-0.1-0.2c-0.1,0-0.1,0-0.2,0L27.9,27.9L27.9,27.9z"/>
<path class="st0" d="M64.5,12.8c0.1,0,0.4,0.1,0.8,0.2c0.4,0.1,0.8,0.4,1.1,0.7s0.5,0.8,0.6,1.4c0,0.5-0.2,0.9-0.5,1.2
	c-0.3,0.3-0.7,0.5-1.1,0.7c-0.5,0.1-0.9,0.2-1.4,0.2h-6.4v-4.4H64.5z M42.2,5.6c-0.1,0-0.1,0.1-0.2,0.2C42,5.8,42,6,42,6.1v5.9
	c0,0.2,0,0.4,0.1,0.5c0.1,0.1,0.1,0.1,0.2,0.1h4.6v15h-4.6c-0.1,0-0.1,0.1-0.2,0.2c0,0.1-0.1,0.2-0.1,0.3v6.5c0,0.2,0,0.3,0.1,0.4
	c0,0.1,0.1,0.1,0.1,0.1h20.1c0.1,0,0.2,0,0.2,0c0,0,0.1-0.1,0.1-0.2v-6.8c0-0.1,0-0.2-0.1-0.2c-0.1,0-0.1,0-0.2,0h-4.9v-4.3h5.2
	c0.2,0,0.5,0,0.9,0.2c0.4,0.1,0.9,0.4,1.3,0.9c0.4,0.5,0.8,1.2,1,2.2c0.1,0.3,0.2,0.8,0.3,1.5c0.1,0.7,0.2,1.3,0.4,2
	c0.1,0.7,0.2,1.2,0.3,1.5c0.1,0.4,0.3,0.8,0.6,1.3c0.3,0.5,0.6,1,1,1.3c0.4,0.4,0.8,0.6,1.3,0.6h8.3c0.5,0,1.2-0.3,1.9-0.9
	c0.7-0.6,1.4-1.5,2-2.6c0.6-1.1,0.9-2.3,0.9-3.8v-4.3c0-0.2,0-0.4-0.1-0.5c0-0.1-0.1-0.1-0.2-0.1h-2.5c-0.1,0-0.2,0-0.2,0.1
	c0,0.1-0.1,0.2-0.1,0.3v1.1c0,0.9-0.1,1.5-0.3,2c-0.2,0.5-0.4,0.8-0.7,1s-0.5,0.3-0.6,0.3c-0.2,0-0.3-0.1-0.4-0.3
	c-0.1-0.2-0.2-0.5-0.3-0.9c-0.2-1.3-0.5-2.4-0.8-3.1c-0.3-0.8-0.7-1.4-1.1-1.9c-0.4-0.5-0.9-0.9-1.5-1.4c0.7-0.5,1.4-1.1,2-1.7
	c0.6-0.7,1.1-1.4,1.6-2.2c0.4-0.8,0.6-1.7,0.6-2.7c0-1.1-0.2-2-0.5-2.8c-0.3-0.8-0.8-1.5-1.2-2c-0.5-0.6-0.9-1-1.4-1.3
	c-0.5-0.3-1.1-0.6-1.8-0.8C73,6.2,72.3,6,71.6,5.9c-0.7-0.1-1.4-0.2-1.9-0.2c-0.5,0-0.9-0.1-1-0.1L42.2,5.6L42.2,5.6z"/>
<path class="st0" d="M86.9,26c0,2,0.3,3.7,0.9,4.9c0.6,1.2,1.3,2.1,2.1,2.7c0.8,0.6,1.6,1,2.3,1.2s1.2,0.3,1.5,0.2h13.6
	c1.4,0,2.4-0.5,3.2-1.4c0.8-0.9,1.3-2,1.7-3.2c0.4-1.2,0.6-2.4,0.7-3.5c0.1-1.1,0.1-1.8,0.1-2.3V12.8h4.8c0.1,0,0.1,0,0.2-0.1
	c0-0.1,0.1-0.2,0.1-0.4V6.6c0-0.4,0-0.7-0.1-0.8c-0.1-0.1-0.2-0.2-0.4-0.2h-14.1c-0.1,0-0.1,0-0.2,0.1c-0.1,0.1-0.1,0.1-0.1,0.2v6.4
	c0,0.2,0,0.3,0.1,0.4c0.1,0.1,0.1,0.1,0.2,0.1h4v11c0,0.9-0.1,1.6-0.4,2.1c-0.2,0.5-0.5,0.9-0.8,1.1c-0.3,0.2-0.5,0.3-0.6,0.3h-5.3
	c-0.8,0-1.3-0.3-1.7-0.8c-0.4-0.5-0.6-1-0.8-1.6c-0.1-0.6-0.2-1.1-0.2-1.5V12.8h4.3c0.1,0,0.2,0,0.3-0.1c0.1-0.1,0.1-0.1,0.2-0.3
	V5.9c0-0.1,0-0.2-0.1-0.3c-0.1,0-0.2-0.1-0.4-0.1H82.1c-0.1,0-0.1,0.1-0.2,0.2c0,0.1-0.1,0.2-0.1,0.4v6.1c0,0.2,0,0.4,0.1,0.5
	c0.1,0.1,0.1,0.1,0.2,0.1h4.7L86.9,26L86.9,26z"/>
</svg>
