<?xml version="1.0" encoding="utf-8"?>
<!-- Generator: Adobe Illustrator 24.1.3, SVG Export Plug-In . SVG Version: 6.00 Build 0)  -->
<svg version="1.1" id="Layer_1" xmlns="http://www.w3.org/2000/svg" xmlns:xlink="http://www.w3.org/1999/xlink" x="0px" y="0px"
	 viewBox="0 0 2560 2025" style="enable-background:new 0 0 2560 2025;" xml:space="preserve">
<style type="text/css">
	.st0{clip-path:url(#SVGID_2_);}
	.st1{fill:#111218;}
	.st2{clip-path:url(#SVGID_4_);}
	.st3{clip-path:url(#SVGID_6_);}
	.st4{clip-path:url(#SVGID_8_);}
</style>
<g>
	<defs>
		<rect id="SVGID_1_" y="478.3" width="720" height="1540.5"/>
	</defs>
	<clipPath id="SVGID_2_">
		<use xlink:href="#SVGID_1_"  style="overflow:visible;"/>
	</clipPath>
	<g class="st0">
		<path class="st1" d="M0,670.8l720-192.5v192.5H0z"/>
		<path class="st1" d="M0,670.8h720v1155.5H0V670.8z"/>
		<path class="st1" d="M0,1826.3h720L0,2018.8V1826.3z"/>
	</g>
</g>
<g>
	<defs>
		<rect id="SVGID_3_" x="719.9" y="285.8" width="720" height="1540.5"/>
	</defs>
	<clipPath id="SVGID_4_">
		<use xlink:href="#SVGID_3_"  style="overflow:visible;"/>
	</clipPath>
	<g class="st2">
		<path class="st1" d="M719.9,478.3l720-192.5v192.5H719.9z"/>
		<path class="st1" d="M719.9,478.3h720v1155.5h-720V478.3z"/>
		<path class="st1" d="M719.9,1633.8h720l-720,192.5V1633.8z"/>
	</g>
</g>
<g>
	<defs>
		<rect id="SVGID_5_" x="1439.9" y="93.3" width="720" height="1540.5"/>
	</defs>
	<clipPath id="SVGID_6_">
		<use xlink:href="#SVGID_5_"  style="overflow:visible;"/>
	</clipPath>
	<g class="st3">
		<path class="st1" d="M1439.9,285.8l720-192.5v192.5H1439.9z"/>
		<path class="st1" d="M1439.9,285.8h720v1155.5h-720V285.8z"/>
		<path class="st1" d="M1439.9,1441.3h720l-720,192.5V1441.3z"/>
	</g>
</g>
<g>
	<defs>
		<rect id="SVGID_7_" x="2159.8" y="-99.1" width="720" height="1540.5"/>
	</defs>
	<clipPath id="SVGID_8_">
		<use xlink:href="#SVGID_7_"  style="overflow:visible;"/>
	</clipPath>
	<g class="st4">
		<path class="st1" d="M2159.8,93.4l720-192.5V93.4H2159.8z"/>
		<path class="st1" d="M2159.8,93.4h720v1155.5h-720V93.4z"/>
		<path class="st1" d="M2159.8,1248.9h720l-720,192.5V1248.9z"/>
	</g>
</g>
</svg>
