<svg width="24" height="141" viewBox="0 0 24 141" fill="none" xmlns="http://www.w3.org/2000/svg">
	<path d="M0 0V18H24V0H0ZM21.3 2L12 8.763L2.7 2H21.3ZM2 16V3.964L12 11.237L22 3.964V16H2Z" fill="white" />
	<path
		d="M17 140.784V134.528H15.752V139.44H11.016V134.672H9.768V139.44H6.184L6.184 134.528H4.936L4.936 140.784H17ZM17 130.237V128.861L8.84 127.309V127.277L17.496 123.405L8.84 119.517V119.485L17 117.933V116.557L4.248 119.005L14.376 123.405L4.248 127.789L17 130.237ZM13.576 105.173L17 103.749V102.261L4.36 107.685L17 113.253L17 111.781L13.576 110.325V105.173ZM12.328 105.701V109.781L7.496 107.717L12.328 105.701ZM4.936 96.6899V98.0339H17V96.6899H4.936ZM4.936 90.0137L4.936 91.3577H17V86.6857H15.752V90.0137H4.936ZM4.936 73.3639V74.7079H12.488C13.864 74.7079 14.968 74.5799 15.976 73.5239C16.776 72.7079 17.208 71.5399 17.208 70.4039C17.208 69.1879 16.728 67.9879 15.832 67.1559C14.84 66.1959 13.8 66.0999 12.488 66.0999H4.936V67.4439H12.12C13.064 67.4439 14.12 67.3959 14.888 68.0359C15.56 68.5959 15.96 69.5399 15.96 70.4039C15.96 71.2839 15.544 72.3079 14.808 72.8359C14.04 73.3959 13.016 73.3639 12.12 73.3639H4.936ZM6.6 54.2987C5.416 54.9387 4.728 56.0747 4.728 57.4187C4.728 59.2107 5.928 60.7947 7.8 60.7947C9.528 60.7947 10.248 59.5787 10.888 58.1707L11.208 57.4347C11.72 56.3147 12.2 55.2107 13.608 55.2107C14.968 55.2107 15.96 56.3947 15.96 57.6907C15.96 58.9867 14.952 59.9307 13.72 60.1067L14.088 61.4187C15.96 61.0347 17.208 59.5947 17.208 57.6587C17.208 55.5627 15.592 53.8667 13.48 53.8667C11.56 53.8667 10.776 55.1947 10.088 56.7627L9.736 57.5627C9.368 58.3787 8.888 59.4507 7.848 59.4507C6.744 59.4507 5.976 58.5227 5.976 57.4507C5.976 56.4267 6.456 55.8507 7.288 55.3707L6.6 54.2987Z"
		fill="#D4D4D5" />
</svg>
