<svg width="82" height="80" viewBox="0 0 82 80" fill="none" xmlns="http://www.w3.org/2000/svg">
<path d="M25.2163 71.3474H29.2707V70.1607H26.6502V69.1719H29.2213V67.9852H26.6502V67.0458H29.2707V65.8591H25.2163V71.3474ZM21.508 67.6886C21.508 66.6502 20.8158 65.8591 19.5797 65.8591H16.8109V71.3474H18.2448V69.4685H18.9864L19.9258 71.3474H21.5575L20.4203 69.3202C20.9147 69.1719 21.508 68.628 21.508 67.6886ZM19.3325 68.2819H18.1953V67.0458H19.3325C19.7281 67.0458 20.0247 67.293 20.0247 67.6886C20.0247 68.0347 19.7281 68.2819 19.3325 68.2819ZM11.2732 65.8591H8.50433V71.3474H9.9382V69.4685H11.2732C12.5093 69.4685 13.2015 68.628 13.2015 67.6391C13.2015 66.6997 12.5093 65.8591 11.2732 65.8591ZM11.1249 68.2819H9.98765V67.0458H11.1249C11.5204 67.0458 11.7676 67.293 11.7676 67.6886C11.7676 68.0347 11.471 68.2819 11.1249 68.2819ZM35.2534 67.9358C34.6601 67.8369 34.314 67.738 34.314 67.4413C34.314 67.1941 34.5117 66.9963 34.9567 66.9963C35.4512 66.9963 36.0445 67.1941 36.4895 67.5897L37.2806 66.5514C36.6873 66.0569 35.9456 65.7603 35.0556 65.7603C33.6218 65.7603 32.8801 66.5514 32.8801 67.4908C32.8801 68.7763 34.1656 69.0235 35.0556 69.2213C35.649 69.3696 35.9951 69.4685 35.9951 69.7652C35.9951 70.0124 35.6984 70.2596 35.204 70.2596C34.4623 70.2596 33.8195 69.9135 33.424 69.518L32.6823 70.6057C33.2262 71.1496 34.0173 71.4957 35.1051 71.4957C36.5884 71.4957 37.3795 70.7541 37.3795 69.6663C37.4289 68.3808 36.1434 68.1336 35.2534 67.9358ZM57.6514 67.0952H59.1842V71.3474H60.6181V67.0952H62.1508V65.8591H57.6514V67.0952ZM67.8863 67.9358C67.293 67.8369 66.9469 67.738 66.9469 67.4413C66.9469 67.1941 67.1446 66.9963 67.5896 66.9963C68.0841 66.9963 68.6774 67.1941 69.1224 67.5897L69.9135 66.5514C69.3202 66.0569 68.5785 65.7603 67.6885 65.7603C66.2546 65.7603 65.513 66.5514 65.513 67.4908C65.513 68.7763 66.7985 69.0235 67.6885 69.2213C68.2818 69.3696 68.6279 69.4685 68.6279 69.7652C68.6279 70.0124 68.3313 70.2596 67.8368 70.2596C67.0952 70.2596 66.4524 69.9135 66.0569 69.518L65.3152 70.6057C65.8591 71.1496 66.6502 71.4957 67.738 71.4957C69.2213 71.4957 70.0124 70.7541 70.0124 69.6663C70.0618 68.3808 68.7763 68.1336 67.8863 67.9358ZM41.0383 71.3474H45.0927V70.1607H42.4722V69.1719H45.0433V67.9852H42.4722V67.0458H45.0927V65.8591H41.0383V71.3474ZM52.5587 69.0235L50.3338 65.8591H48.8504V71.3474H50.2843V68.0347L52.6082 71.3474H53.9926V65.8591H52.5587V69.0235Z" fill="white"/>
<path d="M34.314 17.7502H48.0593L50.4821 6.77368H10.4821L7.96045 17.7502H21.7058L13.3993 55.6736H26.0569L34.314 17.7502Z" fill="white"/>
<path d="M80 58.1459C79.9011 51.9654 79.8022 45.8344 79.6539 39.6539C79.555 33.4734 79.4561 27.3424 79.2089 21.1619L79.0606 16.5637L78.8628 11.9654L78.4178 2.71941L78.3189 0.939431L76.7367 0.988875C73.6712 1.13721 70.5562 1.28554 67.4907 1.38443L62.8925 1.53276C61.3597 1.5822 59.827 1.63164 58.2942 1.63164C52.1137 1.73053 45.9827 1.77998 39.8022 1.68109C33.6218 1.5822 27.4413 1.28554 21.3103 0.988875C15.1298 0.642769 8.99876 0.247219 2.81829 0.0988875L0.296663 0L0.197775 2.71941C0 8.99876 -0.0494438 15.377 0.0494438 21.7058C0.148331 28.0346 0.296663 34.3634 0.543881 40.5933C0.7911 46.8232 1.08776 53.0037 1.43387 59.0853C1.77998 65.1174 2.17553 71.1001 2.62052 76.8356C8.40544 77.2311 14.3387 77.5773 20.4203 77.9234C26.4524 78.2695 32.6329 78.6156 38.8628 78.9122C45.0927 79.2089 51.3721 79.4561 57.7009 79.6044C64.0297 79.8022 70.4079 79.9011 76.7367 79.9506L80.0989 80V76.5884C80.0989 70.4574 80.0989 64.2769 80 58.1459ZM74.5612 11.9654L74.3634 16.5637L74.2151 21.1619C73.9679 27.3424 73.869 33.4734 73.7701 39.6539C73.6712 45.8344 73.5229 51.9654 73.424 58.1459C73.3251 63.1891 73.3251 68.2324 73.3251 73.2756C68.4796 73.3251 63.6836 73.424 58.7886 73.5723C52.8059 73.7701 46.7738 74.0173 40.6922 74.2645C34.6106 74.5612 28.4302 74.8578 22.1508 75.2534C15.8714 75.5995 9.54265 75.9456 3.01607 76.3412C3.46106 69.7651 3.85661 63.3869 4.20272 57.157C4.54883 50.8776 4.84549 44.7466 5.09271 38.7145C5.33993 32.6329 5.48826 26.6502 5.58715 20.6675C5.68603 15.5253 5.68603 10.3832 5.5377 5.24104C10.7787 5.04326 16.0692 4.7466 21.3103 4.44994C27.4413 4.10383 33.6218 3.80717 39.7528 3.70828C45.9333 3.60939 52.0643 3.60939 58.2448 3.75773C59.7775 3.75773 61.3103 3.85661 62.843 3.85661L67.4413 4.00494C69.9135 4.10383 72.3857 4.20272 74.8579 4.30161L74.5612 11.9654Z" fill="white"/>
<path d="M61.9036 42.2743C67.1941 41.8293 71.8912 36.6378 71.8912 30.9023C71.8912 25.414 67.7874 20.1235 59.5303 20.1235H36.5389L26.848 64.1779H52.6576C64.0297 64.1779 68.1829 57.058 68.1829 51.0259C68.1829 47.3176 66.0569 43.4115 61.9036 42.2743ZM51.471 54.7342H40.2472L42.0766 46.5265H53.0532C55.4265 46.5265 56.8109 48.1087 56.8109 50.1359C56.8109 52.707 54.8331 54.7342 51.471 54.7342ZM54.932 37.1816H44.1038L45.8344 29.5673H56.1187C58.3436 29.5673 59.6786 31.1001 59.6786 32.7811C59.7281 34.8083 58.5909 37.1816 54.932 37.1816Z" fill="white"/>
</svg>
