<svg width="67" height="66" viewBox="0 0 67 66" fill="none" xmlns="http://www.w3.org/2000/svg">
<path d="M66 47.9703C65.9184 42.8714 65.8368 37.8133 65.7145 32.7145C65.6329 27.6156 65.5513 22.5575 65.3473 17.4586L65.225 13.665L65.0618 9.87145L64.6947 2.24351L64.6131 0.775031L63.3078 0.815822C60.7787 0.938195 58.2089 1.06057 55.6799 1.14215L51.8863 1.26452C50.6218 1.30532 49.3572 1.34611 48.0927 1.34611C42.9938 1.42769 37.9357 1.46848 32.8368 1.3869C27.7379 1.30532 22.6391 1.06057 17.581 0.815822C12.4821 0.530284 7.42398 0.203956 2.32509 0.0815822L0.244747 0L0.163164 2.24351C0 7.42398 -0.0407911 12.686 0.0407911 17.9073C0.122373 23.1286 0.244747 28.3498 0.448702 33.4895C0.652658 38.6292 0.897404 43.7281 1.18294 48.7454C1.46848 53.7219 1.79481 58.6576 2.16193 63.3894C6.93449 63.7157 11.8294 64.0012 16.8467 64.2868C21.8232 64.5723 26.9221 64.8578 32.0618 65.1026C37.2015 65.3473 42.382 65.5513 47.6032 65.6737C52.8245 65.8368 58.0865 65.9184 63.3078 65.9592L66.0816 66V63.1854C66.0816 58.1273 66.0816 53.0284 66 47.9703ZM61.513 9.87145L61.3498 13.665L61.2274 17.4586C61.0235 22.5575 60.9419 27.6156 60.8603 32.7145C60.7787 37.8133 60.6564 42.8714 60.5748 47.9703C60.4932 52.131 60.4932 56.2917 60.4932 60.4524C56.4957 60.4932 52.5389 60.5748 48.5006 60.6972C43.5649 60.8603 38.5884 61.0643 33.5711 61.2682C28.5538 61.513 23.4549 61.7577 18.2744 62.0841C13.0939 62.3696 7.87268 62.6551 2.48826 62.9815C2.85538 57.5562 3.18171 52.2942 3.46724 47.1545C3.75278 41.974 3.99753 36.9159 4.20148 31.9394C4.40544 26.9221 4.52781 21.9864 4.60939 17.0507C4.69098 12.8084 4.69098 8.56613 4.5686 4.32386C8.89246 4.16069 13.2571 3.91595 17.581 3.6712C22.6391 3.38566 27.7379 3.14091 32.796 3.05933C37.8949 2.97775 42.953 2.97775 48.0519 3.10012C49.3164 3.10012 50.581 3.18171 51.8455 3.18171L55.6391 3.30408C57.6786 3.38566 59.7182 3.46724 61.7577 3.54883L61.513 9.87145Z" fill="#BE1E2D"/>
<path d="M28.309 18.0556H39.649L41.6477 9H8.64773L6.56738 18.0556H17.9073L11.0544 49.3424H21.4969L28.309 18.0556Z" fill="white"/>
<path d="M51.0703 38.2881C55.4349 37.921 59.3101 33.6379 59.3101 28.9061C59.3101 24.3783 55.9244 20.0137 49.1123 20.0137H30.1445L22.1494 56.3585H43.4424C52.8243 56.3585 56.2508 50.4846 56.2508 45.5081C56.2508 42.4488 54.4967 39.2263 51.0703 38.2881ZM42.4634 48.5674H33.2038L34.7131 41.7961H43.7687C45.7267 41.7961 46.8688 43.1014 46.8688 44.7739C46.8688 46.895 45.2372 48.5674 42.4634 48.5674ZM45.3188 34.0866H36.3855L37.8132 27.8048H46.2977C48.1333 27.8048 49.2347 29.0693 49.2347 30.4562C49.2755 32.1286 48.3373 34.0866 45.3188 34.0866Z" fill="#A7A9AC"/>
</svg>
