<svg xmlns="http://www.w3.org/2000/svg" viewBox="0 0 42 42"><defs><style>.cls-1{fill:#fff;}.cls-2{fill:#111218;}.cls-3{fill:#db8758;}.cls-4{fill:#c1582f;}.cls-5{fill:#ed9e7c;}.cls-6{fill:#222530;}.cls-7{fill:#bf1b28;}</style></defs><g id="Layer_2" data-name="Layer 2"><g id="Red_BG" data-name="Red BG"><circle class="cls-1" cx="21" cy="21" r="21"/></g><g id="White_Frame" data-name="White Frame"><path class="cls-2" d="M32.57,9.24l-1.78,3.48a2.8,2.8,0,0,1-2.5,1.53H22.16A1.19,1.19,0,0,0,21,15.44V19a.19.19,0,0,1-.26.18l-1.36-.57a.17.17,0,0,1-.12-.17V16.14a.19.19,0,0,0-.19-.19H17.72a.89.89,0,0,0-.89.89V19.4a.37.37,0,0,0,.28.35l1.9.91a.18.18,0,0,1,.11.17v.91a.18.18,0,0,1-.19.19H13.87a1.4,1.4,0,0,1-1.33-1l-1.42-4.6a1.94,1.94,0,0,1,.12-1.42l2.35-4.78A2,2,0,0,1,15,9.07l8.32-1.45-.62.65a.44.44,0,0,0,.39.74l7.19-1.27-.61.8a.44.44,0,0,0,.35.7Z"/><path class="cls-3" d="M28.32,15.35,30,21H28.32v6.64a1.27,1.27,0,0,1-1.27,1.27H23.18a3.6,3.6,0,0,1-1.7-.42l-2-1.06a2,2,0,0,1-1.08-1.8V21.93h.54a.18.18,0,0,0,.19-.19v-.91a.18.18,0,0,0-.11-.17l-1.9-.91a.37.37,0,0,1-.28-.35V16.84a.89.89,0,0,1,.89-.89h1.33a.19.19,0,0,1,.19.19v2.25a.17.17,0,0,0,.12.17l1.36.57A.19.19,0,0,0,21,19V15.44a1.19,1.19,0,0,1,1.19-1.19H28ZM17.2,17.65l1.48-1.34H17.9a.7.7,0,0,0-.7.7Z"/><path class="cls-3" d="M24.08,29.74v3.07l-12.43-3,.86-1A5.66,5.66,0,0,0,14,25.16l0-3.23h3.37v7.81h6.7Z"/><path class="cls-4" d="M24.07,28.92v.82h-6.7V21.93h1v3.71a2,2,0,0,0,1.08,1.8l2,1.06a3.6,3.6,0,0,0,1.7.42Z"/><path class="cls-4" d="M18.68,16.31,17.2,17.65V17a.7.7,0,0,1,.7-.7Z"/><polygon class="cls-5" points="22.78 32.5 24.07 32.81 24.07 29.74 22.78 29.74 22.78 32.5"/><path class="cls-6" d="M32.57,9.24l-.45.89-3.5.21a.46.46,0,0,1-.49-.45v-.4l-6.84.84a.34.34,0,0,1-.38-.33V9.49l-5,1.07a2,2,0,0,0-1.46,1.24l-1.33,3.48a2,2,0,0,0,0,1.35l1.75,5.3h-.94a1.4,1.4,0,0,1-1.33-1l-1.42-4.6a1.94,1.94,0,0,1,.12-1.42l2.35-4.78A2,2,0,0,1,15,9.07l8.32-1.45-.62.65a.44.44,0,0,0,.39.74l7.19-1.27-.61.8a.44.44,0,0,0,.35.7Z"/><path class="cls-7" d="M11.65,29.81,6.21,35.9a21,21,0,0,0,21.39,5l-3.52-8.13Z"/><polyline class="cls-4" points="26.69 21.01 28.34 21.01 28.34 22.45"/></g></g></svg>