<svg width="14" height="108" viewBox="0 0 14 108" fill="none" xmlns="http://www.w3.org/2000/svg">
<path d="M2.184 102.296H0.936V107.784H13V106.44H7.016V102.424H5.768V106.44H2.184V102.296ZM0.936 95.8874V97.2314H13V95.8874H0.936ZM13 90.4752V89.1312H3.704L13.544 79.7232H0.936V81.0672H10.28L0.424 90.4752H13ZM13 74.3315V72.0915C13 70.2035 12.76 68.7635 11.48 67.3235C10.296 65.9955 8.744 65.3555 6.984 65.3555C5.192 65.3555 3.576 65.9795 2.392 67.3555C1.176 68.7795 0.936 70.2515 0.936 72.0595L0.936 74.3315H13ZM11.752 72.9875H2.184L2.184 72.0115C2.184 70.5875 2.376 69.3715 3.352 68.2675C4.264 67.2275 5.592 66.6995 6.968 66.6995C8.312 66.6995 9.576 67.2115 10.504 68.2035C11.544 69.3075 11.752 70.5395 11.752 72.0115V72.9875ZM0.936 51.4939V52.8379H8.488C9.864 52.8379 10.968 52.7099 11.976 51.6539C12.776 50.8379 13.208 49.6699 13.208 48.5339C13.208 47.3179 12.728 46.1179 11.832 45.2859C10.84 44.3259 9.8 44.2299 8.488 44.2299H0.936V45.5739H8.12C9.064 45.5739 10.12 45.5259 10.888 46.1659C11.56 46.7259 11.96 47.6699 11.96 48.5339C11.96 49.4139 11.544 50.4379 10.808 50.9659C10.04 51.5259 9.016 51.4939 8.12 51.4939H0.936ZM2.6 32.4288C1.416 33.0688 0.728 34.2048 0.728 35.5488C0.728 37.3408 1.928 38.9248 3.8 38.9248C5.528 38.9248 6.248 37.7088 6.888 36.3008L7.208 35.5648C7.72 34.4448 8.2 33.3408 9.608 33.3408C10.968 33.3408 11.96 34.5248 11.96 35.8208C11.96 37.1168 10.952 38.0608 9.72 38.2368L10.088 39.5488C11.96 39.1648 13.208 37.7248 13.208 35.7888C13.208 33.6928 11.592 31.9968 9.48 31.9968C7.56 31.9968 6.776 33.3248 6.088 34.8928L5.736 35.6928C5.368 36.5088 4.888 37.5808 3.848 37.5808C2.744 37.5808 1.976 36.6528 1.976 35.5808C1.976 34.5568 2.456 33.9808 3.288 33.5008L2.6 32.4288ZM9.576 12.3934L13 10.9694V9.48137L0.36 14.9054L13 20.4734V19.0014L9.576 17.5454V12.3934ZM8.328 12.9214V17.0014L3.496 14.9374L8.328 12.9214ZM2.184 3.36713V0.423127H0.936V7.62313H2.184V4.71113H13V3.36713H2.184Z" fill="#D4D4D5"/>
</svg>
