<svg width="253" height="50" viewBox="0 0 253 50" fill="none" xmlns="http://www.w3.org/2000/svg">
<path d="M159.644 32.4466C163.027 32.1749 165.064 30.3215 165.756 26.8862C166.239 24.5822 165.858 22.7 164.611 21.2396C163.538 19.9965 161.731 19.2967 159.191 19.1401C158.985 19.1264 158.779 19.1264 158.573 19.1401C156.352 21.4936 154.364 23.5356 152.199 25.9563C151.213 27.0588 150.095 28.1948 149.089 29.2781C148.79 29.5993 148.584 30.1266 148.257 30.3662L147.948 30.7114L147.191 31.5502C147.153 31.5981 146.999 32.2548 146.999 32.2548L144.104 46.496H154.219C156.49 46.5481 158.708 45.7871 160.491 44.3438C162.257 42.9389 163.461 40.9203 163.876 38.6684C164.254 36.799 164.098 35.361 163.409 34.3543C162.74 33.3765 161.477 32.7342 159.644 32.4466ZM156.661 37.911C156.518 38.6938 156.09 39.3914 155.463 39.862C154.793 40.3557 153.983 40.6085 153.158 40.581C153.092 40.581 153.004 40.581 152.901 40.581H152.545L153.607 35.3082H154.177C154.55 35.2779 154.925 35.3241 155.28 35.4443C155.635 35.5645 155.963 35.7562 156.244 36.0081C156.468 36.2615 156.624 36.5699 156.697 36.9034C156.77 37.2369 156.757 37.584 156.661 37.911V37.911ZM158.498 27.3656C158.436 27.7153 158.306 28.0488 158.116 28.3467C157.927 28.6446 157.682 28.9009 157.395 29.1008C156.747 29.5303 155.987 29.7462 155.216 29.7191H154.748L155.683 25.0168L156.151 24.988C156.272 24.988 156.371 24.988 156.455 24.988C158.132 25.0008 158.809 25.8013 158.484 27.3895L158.498 27.3656ZM240.579 36.5545H243.245C243.135 37.1193 242.962 37.6693 242.73 38.1939C242.534 38.6441 242.279 39.0649 241.973 39.4449C241.714 39.7698 241.397 40.04 241.037 40.2406C240.701 40.4251 240.325 40.5222 239.943 40.5235C239.008 40.5235 238.395 39.9818 238.175 38.9033C237.956 37.8248 238.082 36.0991 238.564 33.7216C239.698 28.1261 241.257 25.33 243.24 25.3332C243.498 25.324 243.754 25.3903 243.976 25.5244C244.199 25.6586 244.38 25.8549 244.498 26.0905C244.792 26.7294 244.898 27.4425 244.802 28.1421L252.331 25.5297C251.34 21.0079 248.732 18.7422 244.507 18.7326C241.318 18.7326 238.548 20.0109 236.197 22.5674C233.847 25.1238 232.218 28.6134 231.31 33.0362C230.428 37.4141 230.642 40.859 231.951 43.3707C233.261 45.8825 235.538 47.1288 238.783 47.1096C240.338 47.1424 241.88 46.82 243.298 46.1658C244.716 45.5117 245.974 44.5421 246.981 43.3276C248.983 41.014 250.518 37.2192 251.588 31.9433L251.817 30.8072H241.739L240.579 36.5545ZM226.494 19.2312L225.245 25.4051C225.014 26.5523 224.796 27.9711 224.59 29.6616C224.385 31.3521 224.176 33.3877 223.964 35.7684L223.707 33.3717C223.599 32.413 223.496 31.5694 223.398 30.8312C223.3 30.093 223.206 29.4459 223.127 28.8803L221.453 19.2216H214.564L209.037 46.6063H215.93L217.333 39.6175C217.548 38.5438 217.768 37.2895 217.992 35.8547C218.212 34.4167 218.46 32.7438 218.679 30.8168C218.74 31.67 218.824 32.5664 218.941 33.5059C219.058 34.4454 219.199 35.4568 219.358 36.5353L220.957 46.6015H227.845L233.396 19.2072L226.494 19.2312ZM205.73 19.1736L200.179 46.5871H207.405L212.951 19.1928L205.73 19.1736ZM204.795 19.1736H196.71L194.839 22.9173C194.512 23.5564 194.085 24.4656 193.558 25.6447C193.558 25.0647 193.53 24.547 193.502 24.0821C193.481 23.6788 193.437 23.277 193.371 22.8789L192.95 19.1736H184.911L188.371 32.3699L179.019 46.5679H186.88L188.947 42.9729C189.641 41.7585 190.274 40.5091 190.845 39.2292C190.894 40.3823 191.008 41.5314 191.187 42.6709L191.734 46.5679H199.754L196.069 32.3411L204.795 19.1736ZM180.59 43.1407C182.975 40.533 184.591 37.1409 185.439 32.9643C186.325 28.5863 186.116 25.1079 184.813 22.529C183.51 19.9502 181.318 18.6559 178.238 18.6464C175.719 18.6464 173.349 19.5939 171.129 21.4889C168.143 24.0453 166.157 27.7506 165.172 32.6047C164.143 37.6698 164.558 41.4694 166.416 44.0035C167.887 46.0071 169.942 47.0121 172.579 47.0185C175.544 47.0217 178.214 45.7291 180.59 43.1407ZM177.929 33.0026C177.62 34.8351 177.016 36.6023 176.143 38.2322C175.427 39.4881 174.641 40.1112 173.804 40.1112C172.967 40.1112 172.448 39.4737 172.238 38.1939C172.027 36.914 172.158 35.1309 172.626 32.8252C173.094 30.5196 173.706 28.7077 174.45 27.5046C175.221 26.2056 176.03 25.5537 176.886 25.5584C178.585 25.5489 178.933 28.0239 177.929 32.9834V33.0026Z" fill="#A7A9AC"/>
<path d="M16.9053 4.91319H1.51516L0.19641 11.5041H4.20879L0 32.3938H7.2438L11.4526 11.4993H15.6006L16.9053 4.91319ZM29.4756 4.91319L27.5302 14.6294H24.0743L26.0197 4.91319H18.7806L13.267 32.3938H20.5108L22.7275 21.3402H26.188L23.9667 32.3938H31.2059L36.7194 4.91319H29.4756ZM54.6254 8.29254C53.316 5.7041 51.115 4.41148 48.0223 4.41468C45.497 4.41468 43.123 5.37336 40.9001 7.29072C37.9072 9.86957 35.9228 13.5909 34.947 18.4546C33.9275 23.5356 34.35 27.3447 36.2143 29.882C37.7014 31.8857 39.7637 32.8891 42.4012 32.8923C45.3754 32.8923 48.0519 31.5869 50.4307 28.9761C52.8094 26.3653 54.4243 22.954 55.2755 18.7422C56.1484 14.361 55.9317 10.8778 54.6254 8.29254ZM47.7417 18.7949C47.4353 20.6411 46.8333 22.4227 45.96 24.0676C45.2429 25.3235 44.4635 25.9514 43.6218 25.9514C42.78 25.9514 42.2563 25.3123 42.0505 24.0341C41.8401 22.759 41.9617 20.9615 42.4293 18.6511C42.8969 16.3407 43.5049 14.5192 44.2437 13.3112C44.9889 11.9946 45.7979 11.3364 46.6708 11.3364C48.3824 11.3364 48.7394 13.8225 47.7417 18.7949ZM73.6305 4.89402L69.7911 14.8595C69.2486 16.24 68.728 17.8011 68.2292 19.5427C68.3539 18.4977 68.4583 17.531 68.5425 16.6427C68.6267 15.7543 68.6781 14.9298 68.6968 14.1693L69.0429 4.91319H60.0314L51.394 32.3938H59.1055L62.2433 19.9309L63.4358 14.8595C63.3563 15.6696 63.3002 16.2017 63.2722 16.4653C63.1163 18.1941 63.0274 19.4164 63.0056 20.1323L62.4912 32.3938H68.3929L73.1254 20.1323C73.4387 19.3174 73.738 18.4689 74.0186 17.5965C74.2992 16.7241 74.5704 15.8182 74.8463 14.8595L74.07 19.8638L72.0919 32.3938H79.6631L82.5718 4.91319L73.6305 4.89402ZM134.85 8.29254C133.54 5.7041 131.339 4.41148 128.247 4.41468C125.728 4.41468 123.353 5.37336 121.124 7.29072C118.131 9.86957 116.147 13.5909 115.171 18.4546C114.149 23.526 114.573 27.3303 116.443 29.8677C117.93 31.8713 119.993 32.8747 122.63 32.8779C125.604 32.8779 128.281 31.5725 130.66 28.9617C133.038 26.3509 134.652 22.9444 135.5 18.7422C136.376 14.361 136.159 10.8778 134.85 8.29254ZM127.966 18.7949C127.66 20.6411 127.058 22.4227 126.184 24.0676C125.47 25.3235 124.691 25.9514 123.846 25.9514C123.001 25.9514 122.477 25.3123 122.275 24.0341C122.063 22.7558 122.189 20.9615 122.654 18.6511C123.118 16.3407 123.724 14.5607 124.473 13.3112C125.24 12.0042 126.053 11.3507 126.914 11.3507C128.613 11.3411 128.964 13.8225 127.966 18.7949ZM151.194 4.89402L149.955 11.0679C149.724 12.2183 149.509 13.642 149.309 15.3388C149.11 17.0357 148.91 19.0841 148.711 21.484L148.449 19.0873C148.341 18.1286 148.238 17.2754 148.135 16.542C148.033 15.8086 147.944 15.1519 147.86 14.5815L146.167 4.93716H139.231L133.718 32.3938H140.63L142.033 25.381C142.248 24.3025 142.468 23.0418 142.683 21.6086C142.898 20.1754 143.15 18.4881 143.37 16.5516C143.426 17.4048 143.515 18.3044 143.637 19.2503C143.758 20.1962 143.899 21.2076 144.058 22.2845L145.068 28.5734C148.612 24.5134 152.452 20.1323 155.819 16.2975L158.106 4.89402H151.194ZM111.369 15.9188L110.397 15.0464C109.56 14.3226 109.213 13.6084 109.358 12.8559C109.468 12.3801 109.751 11.9651 110.149 11.6959C110.574 11.3722 111.092 11.2035 111.622 11.2165C112.379 11.2294 113.108 11.5163 113.679 12.0266C114.368 12.6277 114.907 13.3885 115.251 14.246L116.934 5.84311C115.447 4.9259 113.745 4.44042 112.01 4.43865C110.1 4.42861 108.238 5.05247 106.702 6.217C106.118 6.63687 105.579 7.11889 105.094 7.65502C103.909 8.95347 102.997 10.487 102.414 12.1608C102.475 11.2359 102.347 10.3081 102.038 9.43664C101.73 8.56516 101.248 7.76905 100.623 7.09899C99.223 5.64179 96.7757 4.91319 93.2808 4.91319H86.2662L80.7433 32.3938H87.9871L89.7875 23.387H90.9146C93.6269 23.387 95.817 22.8357 97.485 21.7332C99.6398 20.2762 101.197 18.0586 101.862 15.5018V15.5881C101.888 16.2585 102.013 16.921 102.232 17.5534C102.466 18.2199 102.799 18.8455 103.218 19.4084C103.706 20.0664 104.259 20.6705 104.869 21.2108L105.86 22.1694C106.578 22.8693 106.861 23.5883 106.712 24.3265C106.604 24.8466 106.302 25.3028 105.87 25.5967C105.393 25.941 104.821 26.1191 104.238 26.1048C102.582 26.1048 101.242 25.1078 100.216 23.1137L98.4857 31.7419C100.138 32.4844 101.919 32.8788 103.723 32.9019C106.183 32.8963 108.552 31.9473 110.364 30.2415C112.311 28.499 113.629 26.135 114.105 23.5308C114.435 22.1536 114.375 20.7088 113.932 19.3653C113.383 18.0074 112.5 16.8184 111.369 15.9141V15.9188ZM94.8615 14.1357C94.7156 15.0155 94.2798 15.8174 93.6269 16.4078C92.9947 16.9576 92.1878 17.2509 91.3588 17.2322H91.0315L92.2941 10.9289H92.7992C93.1448 10.9077 93.4898 10.9802 93.7993 11.1393C94.1089 11.2984 94.372 11.5383 94.5622 11.8349C94.7602 12.1772 94.8888 12.5571 94.9403 12.9516C94.9917 13.3461 94.9649 13.7472 94.8615 14.1309V14.1357Z" fill="white"/>
<path d="M172.949 0L127.695 49.9952L173.65 0.623143L172.949 0ZM170.61 0L125.328 49.9904L171.284 0.618349L170.61 0ZM175.287 0L130.005 50L175.96 0.627936L175.287 0Z" fill="#BE1E2D"/>
</svg>
