<svg width="27" height="31" viewBox="0 0 27 31" fill="none" xmlns="http://www.w3.org/2000/svg">
<path d="M4.43778 17.5674L0.0482784 26.7849C-0.0292216 26.9489 -0.0127217 27.1419 0.0927783 27.2894C0.197278 27.4369 0.371778 27.5169 0.555278 27.4964L4.74278 27.0314L7.07628 30.7644C7.16728 30.9114 7.32778 30.9999 7.49978 30.9999C7.50778 30.9999 7.51528 30.9999 7.52378 30.9994C7.70428 30.9909 7.86628 30.8849 7.94728 30.7234L12.3383 21.9414C9.13578 21.6189 6.31978 19.9749 4.43778 17.5674Z" fill="#BE1E2D"/>
<path d="M22.5616 17.5674L26.9511 26.7854C27.0286 26.9494 27.0121 27.1424 26.9066 27.2899C26.8021 27.4374 26.6276 27.5174 26.4441 27.4969L22.2566 27.0319L19.9231 30.7649C19.8321 30.9114 19.6716 30.9999 19.4996 30.9999C19.4916 30.9999 19.4841 30.9999 19.4756 30.9994C19.2951 30.9909 19.1331 30.8849 19.0521 30.7234L14.6611 21.9414C17.8636 21.6189 20.6796 19.9749 22.5616 17.5674Z" fill="#BE1E2D"/>
<path d="M13.5 0C7.7105 0 3 4.71 3 10.5C3 16.29 7.7105 21 13.5 21C19.2895 21 24 16.29 24 10.5C24 4.71 19.2895 0 13.5 0ZM18.846 9.764L16.5175 12L17.039 15.186C17.07 15.374 16.991 15.563 16.8365 15.6735C16.7495 15.7355 16.648 15.767 16.5455 15.767C16.4645 15.767 16.3835 15.7475 16.3095 15.7075L13.4635 14.1835L10.595 15.664C10.4265 15.7515 10.2215 15.735 10.0685 15.622C9.915 15.509 9.8395 15.319 9.873 15.1315L10.443 11.9535L8.1485 9.6825C8.013 9.5485 7.9655 9.3495 8.026 9.169C8.086 8.9885 8.2435 8.8575 8.432 8.832L11.63 8.3925L13.0805 5.508C13.166 5.3375 13.3315 5.2205 13.531 5.2325C13.7215 5.234 13.8945 5.3435 13.9775 5.5145L15.384 8.4205L18.5755 8.909C18.7635 8.9375 18.9195 9.071 18.9765 9.2525C19.034 9.434 18.9835 9.6325 18.846 9.764Z" fill="#BE1E2D"/>
</svg>
