<svg xmlns="http://www.w3.org/2000/svg" fill="none" viewBox="0 0 82 80"><path fill="#fff" d="M34.314 17.7502h13.7453l2.4228-10.97652h-40L7.96045 17.7502H21.7058l-8.3065 37.9234h12.6576l8.2571-37.9234z"/><path fill="#A7A9AC" d="M61.9036 42.2743c5.2905-.445 9.9876-5.6365 9.9876-11.372 0-5.4883-4.1038-10.7788-12.3609-10.7788H36.5389L26.848 64.1779h25.8096c11.3721 0 15.5253-7.1199 15.5253-13.152 0-3.7083-2.126-7.6144-6.2793-8.7516zM51.471 54.7342H40.2472l1.8294-8.2077h10.9766c2.3733 0 3.7577 1.5822 3.7577 3.6094 0 2.5711-1.9778 4.5983-5.3399 4.5983zm3.461-17.5526H44.1038l1.7306-7.6143h10.2843c2.2249 0 3.5599 1.5328 3.5599 3.2138.0495 2.0272-1.0877 4.4005-4.7466 4.4005z"/></svg>
