<?xml version="1.0" encoding="utf-8"?>
<!-- Generator: Adobe Illustrator 24.1.3, SVG Export Plug-In . SVG Version: 6.00 Build 0)  -->
<svg version="1.1" width="410" height="80" id="Layer_1" xmlns="http://www.w3.org/2000/svg" xmlns:xlink="http://www.w3.org/1999/xlink" x="0px" y="0px"
	 viewBox="0 0 410 80" style="enable-background:new 0 0 410 80;" xml:space="preserve">
<style type="text/css">
	.st0{fill:#A7A9AC;}
	.st1{fill:#FFFFFF;}
</style>
<path class="st0" d="M259.4,51.9c5.5-0.4,8.8-3.4,9.9-8.9c0.8-3.7,0.1-6.7-1.9-9c-1.7-2-4.7-3.1-8.8-3.4c0,0-0.6,0-1,0
	c-3.6,3.8-6.8,7-10.4,10.9c-1.6,1.8-3.4,3.6-5.1,5.3c-0.5,0.5-0.8,1.4-1.4,1.7c-0.2,0.2-0.3,0.4-0.5,0.6l-1.2,1.3
	c-0.1,0.1-0.3,1.1-0.3,1.1l-4.7,22.8l16.4,0c3.9,0,7.3-1.1,10.2-3.4c2.9-2.3,4.7-5.3,5.5-9.1c0.6-3,0.4-5.3-0.7-6.9
	C264.4,53.4,262.4,52.4,259.4,51.9z M254.5,60.7c-0.3,1.3-0.9,2.3-1.9,3.1c-1,0.8-2.3,1.2-3.7,1.2c-0.1,0-0.3,0-0.4,0
	c-0.2,0-0.4,0-0.6,0l1.7-8.4l0.9,0c1.5,0,2.6,0.4,3.4,1.1C254.6,58.3,254.8,59.3,254.5,60.7z M257.5,43.8c-0.2,1.2-0.8,2.1-1.8,2.8
	c-1,0.7-2.1,1-3.5,1l-0.8,0l1.5-7.5c0.3,0,0.5,0,0.7,0c0.2,0,0.4,0,0.5,0C256.9,40,258,41.3,257.5,43.8z M390.9,58.5l4.3,0
	c-0.2,1-0.5,1.8-0.8,2.6c-0.4,0.8-0.8,1.5-1.2,2c-0.5,0.5-1,1-1.5,1.3c-0.6,0.3-1.2,0.5-1.8,0.5c-1.6,0-2.5-0.9-2.9-2.6
	c-0.4-1.7-0.1-4.5,0.6-8.3c1.8-9,4.4-13.4,7.6-13.4c0.9,0,1.6,0.4,2,1.2c0.4,0.8,0.6,1.9,0.5,3.3l12.2-4.2
	c-1.6-7.2-5.8-10.9-12.7-10.9c-5.2,0-9.7,2-13.5,6.1c-3.8,4.1-6.5,9.7-7.9,16.8c-1.4,7-1.1,12.5,1,16.5c2.2,4,5.9,6,11.1,6
	c5.3,0,9.8-2,13.3-6.1c3.3-3.7,5.8-9.8,7.5-18.2l0.4-1.8l-16.4,0L390.9,58.5z M368,30.8l-2,9.9c-0.4,1.8-0.7,4.1-1.1,6.8
	c-0.3,2.7-0.7,6-1,9.8l-0.4-3.9c-0.2-1.5-0.3-2.9-0.5-4.1c-0.2-1.2-0.3-2.2-0.4-3.1l-2.7-15.4l-11.2,0l-9,43.8l11.2,0l2.3-11.2
	c0.4-1.7,0.7-3.7,1.1-6c0.4-2.3,0.7-5,1.1-8.1c0.1,1.4,0.2,2.8,0.4,4.3c0.2,1.5,0.4,3.1,0.7,4.8l2.6,16.1l11.2,0l9-43.8L368,30.8z
	 M334.3,30.7l-9,43.8l11.7,0l9-43.8L334.3,30.7z M332.8,30.7l-13.1,0l-3,6c-0.5,1-1.2,2.5-2.1,4.4c0-0.9,0-1.8-0.1-2.5
	c0-0.7-0.1-1.4-0.2-1.9l-0.7-5.9l-13.1,0l5.6,21.1l-15.2,22.7l12.8,0l3.4-5.8c1.3-2.3,2.3-4.2,3.1-6c0.1,1.8,0.3,3.6,0.6,5.5
	l0.9,6.2l13,0l-6-22.8L332.8,30.7z M293.4,69c3.9-4.2,6.5-9.6,7.9-16.3c1.4-7,1.1-12.5-1-16.7c-2.1-4.1-5.7-6.2-10.7-6.2
	c-4.1,0-7.9,1.5-11.5,4.5c-4.9,4.1-8.1,10-9.7,17.8c-1.7,8.1-1,14.2,2,18.2c2.4,3.2,5.7,4.8,10,4.8C285.2,75.2,289.6,73.2,293.4,69z
	 M289.1,52.8c-0.7,3.6-1.7,6.4-2.9,8.4c-1.2,2-2.4,3-3.8,3c-1.4,0-2.2-1-2.5-3.1c-0.3-2-0.1-4.9,0.6-8.6c0.8-3.7,1.8-6.6,3-8.5
	c1.3-2.1,2.6-3.1,4-3.1C290.2,40.9,290.8,44.8,289.1,52.8z"/>
<path class="st1" d="M27.5,7.9h-25L0.3,18.4h6.5L0,51.8h11.8l6.8-33.4h6.7L27.5,7.9z M47.9,7.9l-3.2,15.6h-5.6l3.2-15.6H30.5l-9,44
	h11.8l3.6-17.7h5.6l-3.6,17.7h11.8l9-44H47.9z M88.8,13.3C86.6,9.1,83.1,7.1,78,7.1c-4.1,0-8,1.5-11.6,4.6
	c-4.9,4.1-8.1,10.1-9.7,17.9c-1.7,8.1-1,14.2,2.1,18.3c2.4,3.2,5.8,4.8,10.1,4.8c4.8,0,9.2-2.1,13-6.3c3.9-4.2,6.5-9.6,7.9-16.3
	C91.2,23,90.9,17.4,88.8,13.3z M77.6,30.1c-0.7,3.6-1.7,6.4-2.9,8.4c-1.2,2-2.4,3-3.8,3c-1.4,0-2.2-1-2.6-3.1
	c-0.3-2-0.1-4.9,0.6-8.6c0.8-3.8,1.8-6.6,3-8.5c1.3-2.1,2.6-3.1,4-3.1C78.6,18.1,79.2,22.1,77.6,30.1z M119.6,7.9l-6.2,15.9
	c-0.9,2.2-1.7,4.7-2.5,7.5c0.2-1.7,0.4-3.2,0.5-4.6c0.1-1.4,0.2-2.7,0.3-4l0.6-14.8H97.5l-14,44H96l5.1-19.9l1.9-8.1
	c-0.1,1.3-0.2,2.1-0.3,2.6c-0.2,2.8-0.4,4.7-0.4,5.9l-0.8,19.6h9.6l7.7-19.6c0.5-1.3,1-2.7,1.4-4.1c0.5-1.4,0.9-2.9,1.3-4.4l-1.3,8
	l-3.2,20.1h12.3l4.7-44L119.6,7.9L119.6,7.9z M219.1,13.3c-2.1-4.1-5.7-6.2-10.7-6.2c-4.1,0-8,1.5-11.6,4.6
	c-4.9,4.1-8.1,10.1-9.7,17.9c-1.7,8.1-1,14.2,2.1,18.3c2.4,3.2,5.8,4.8,10.1,4.8c4.8,0,9.2-2.1,13-6.3c3.9-4.2,6.5-9.6,7.9-16.3
	C221.6,23,221.3,17.4,219.1,13.3z M207.9,30.1c-0.7,3.6-1.7,6.4-2.9,8.4c-1.2,2-2.4,3-3.8,3c-1.4,0-2.2-1-2.6-3.1
	c-0.3-2-0.1-4.9,0.6-8.6c0.8-3.8,1.8-6.6,3-8.5c1.3-2.1,2.6-3.1,4-3.1C209,18.1,209.6,22.1,207.9,30.1z M245.7,7.9l-2,9.9
	c-0.4,1.8-0.7,4.1-1.1,6.8c-0.3,2.7-0.7,6-1,9.8l-0.4-3.9c-0.2-1.5-0.3-2.9-0.5-4.1c-0.2-1.2-0.3-2.2-0.4-3.1l-2.8-15.4h-11.2l-9,44
	h11.2l2.3-11.2c0.4-1.7,0.7-3.7,1.1-6s0.7-5,1.1-8.1c0.1,1.4,0.2,2.8,0.4,4.3c0.2,1.5,0.4,3.1,0.7,4.9l1.6,10.1
	c5.8-6.5,12-13.5,17.5-19.6l3.7-18.2H245.7z M181,25.5l-1.6-1.4c-1.4-1.2-1.9-2.3-1.7-3.5c0.1-0.7,0.6-1.3,1.3-1.9
	c0.7-0.5,1.5-0.8,2.4-0.8c1.2,0,2.3,0.4,3.3,1.3c1,0.9,1.9,2,2.6,3.5L190,9.3c-2.5-1.5-5.2-2.2-8-2.2c-3.1,0-6,0.9-8.6,2.8
	c-0.9,0.7-1.8,1.4-2.6,2.3s-1.5,1.8-2.2,2.9c-0.9,1.5-1.7,3-2.1,4.4c0.1-3.3-0.9-6-2.9-8.1c-2.3-2.3-6.2-3.5-11.9-3.5h-11.4l-9,44
	H143l2.9-14.4h1.8c4.4,0,8-0.9,10.7-2.6c3.5-2.3,5.9-5.6,7.1-10c0,0,0,0.1,0,0.1c0,1.1,0.2,2.1,0.6,3.1c0.4,1,0.9,2,1.6,3
	c0.7,1,1.6,1.9,2.7,2.9l1.6,1.5c1.2,1.1,1.6,2.3,1.4,3.4c-0.2,0.8-0.6,1.5-1.4,2c-0.8,0.5-1.6,0.8-2.6,0.8c-2.7,0-4.9-1.6-6.5-4.8
	L160,50.8c2.9,1.2,5.7,1.9,8.5,1.9c4,0,7.6-1.4,10.8-4.2c3.2-2.8,5.2-6.4,6.1-10.7c0.5-2.5,0.4-4.8-0.3-6.7
	C184.5,29.1,183.1,27.3,181,25.5z M154.1,22.6c-0.3,1.5-1,2.7-2,3.6c-1,0.9-2.3,1.3-3.7,1.3l-0.5,0l2.1-10.1h0.8
	c1.3,0,2.2,0.5,2.9,1.5C154.3,19.9,154.5,21.1,154.1,22.6z"/>
<path d="M281,0l-73.5,80l74.7-79L281,0z M277.2,0l-73.5,80l74.7-79L277.2,0z M284.8,0l-73.5,80L286,1L284.8,0z"/>
</svg>
